<?xml version="1.0" encoding="UTF-8" standalone="no"?>
<!-- Created with Inkscape (http://www.inkscape.org/) -->

<svg
   version="1.1"
   id="svg1"
   width="30"
   height="30"
   viewBox="0 0 30 30"
   sodipodi:docname="qrcode.svg"
   inkscape:version="1.4.3 (0d15f75, 2025-12-25)"
   xmlns:inkscape="http://www.inkscape.org/namespaces/inkscape"
   xmlns:sodipodi="http://sodipodi.sourceforge.net/DTD/sodipodi-0.dtd"
   xmlns="http://www.w3.org/2000/svg"
   xmlns:svg="http://www.w3.org/2000/svg">
  <defs
     id="defs1" />
  <sodipodi:namedview
     id="namedview1"
     pagecolor="#ffffff"
     bordercolor="#000000"
     borderopacity="0.25"
     inkscape:showpageshadow="2"
     inkscape:pageopacity="0.0"
     inkscape:pagecheckerboard="0"
     inkscape:deskcolor="#d1d1d1"
     inkscape:zoom="19.666667"
     inkscape:cx="14.974576"
     inkscape:cy="17.79661"
     inkscape:current-layer="g1" />
  <g
     inkscape:groupmode="layer"
     inkscape:label="Image"
     id="g1"
     transform="translate(-16,-16)">
    <path
       style="fill:#000000;stroke-width:0.999997"
       d="M 19.620689,46 H 16 v -3.620689 -3.62069 h 3.620689 3.62069 V 42.379311 46 Z m 0,-1.034483 h 2.586207 V 42.37931 39.793103 h -2.586207 -2.586206 v 2.586207 2.586207 z m 0,-1.034483 H 18.068965 V 42.37931 40.827586 h 1.551724 1.551725 v 1.551724 1.551724 z M 25.310345,46 h -1.034482 v -0.517241 -0.517241 h 1.034482 1.034483 V 45.482759 46 Z m 11.896552,0 h -2.586208 v -1.034483 -1.034483 h 0.517242 0.517242 v 0.517242 0.517241 h 0.517241 0.517241 v -1.034483 -1.034482 h -2.586207 -2.586206 v -1.034483 -1.034483 h -1.034483 -1.034483 v 0.517242 0.517241 h -0.517241 -0.517241 v 1.551724 1.551724 H 27.896551 27.37931 V 43.413793 41.862069 H 26.862069 26.344828 V 41.344828 40.827586 H 25.310345 24.275862 V 38.75862 36.689655 H 23.75862 23.241379 v 0.517242 0.517241 h -0.517241 -0.517242 v -0.517241 -0.517242 h -0.517241 -0.517241 v 0.517242 0.517241 h -1.034483 -1.034483 v -0.517241 -0.517242 h -0.517241 -0.517242 v 0.517242 0.517241 h -0.517241 -0.517241 v -0.517241 -0.517242 h 0.517241 0.517241 v -0.517241 -0.517242 h 0.517242 0.517241 v 0.517242 0.517241 h 0.517241 0.517242 v -0.517241 -0.517242 h 1.034483 1.034482 v -0.517241 -0.517242 h -1.034482 -1.034483 v -1.034482 -1.034483 h 0.517242 0.517241 v 0.517241 0.517242 h 0.517241 0.517242 v -0.517242 -0.517241 h 0.517241 0.517242 V 32.034483 31.517241 H 22.724138 22.206896 V 31 30.482758 h 0.517242 0.517241 v -0.517241 -0.517241 h -2.068965 -2.068966 v -0.517242 -0.517241 h -0.517242 -0.517241 v -0.517242 -0.51724 h -0.517241 -0.517241 v 0.51724 0.517242 H 16.517241 16 v -0.517242 -0.51724 h 0.517241 0.517242 V 26.862069 26.344828 H 16.517241 16 v -1.034483 -1.034483 h 0.517241 0.517242 v 0.517241 0.517242 h 0.517241 0.517241 v -0.517242 -0.517241 h 1.034483 1.034483 v 0.517241 0.517242 h 0.517241 0.517242 v -0.517242 -0.517241 h 1.551724 1.551725 v -1.034483 -1.034483 h 0.51724 0.517242 v 0.517242 0.517241 h 0.517241 0.517242 v -0.517241 -0.517242 h 0.517241 0.517241 v 0.517242 0.517241 h 0.517241 0.517242 v -1.034483 -1.034482 h 1.034483 1.034482 V 20.137931 19.103448 H 31 31.517241 v -0.517241 -0.517242 h 1.034483 1.034483 v -0.517241 -0.517241 h 0.517241 0.517241 V 16.517241 16 h 1.551725 1.551724 v 1.551724 1.551724 h -0.517241 -0.517242 v 1.034483 1.034483 h 0.517242 0.517241 v 1.034482 1.034483 h -0.517241 -0.517242 v 0.517241 0.517242 h -0.517241 -0.517242 v 0.517241 0.517242 h 1.034483 1.034483 v 0.517241 0.517242 h 0.517241 0.517241 v -1.034483 -1.034483 h 0.517243 0.51724 v 0.517241 0.517242 h 1.034483 1.034483 v -0.517242 -0.517241 h 0.517241 0.517242 v 0.517241 0.517242 H 42.37931 41.862069 v 0.517241 0.517242 h -0.517241 -0.517242 v 0.517241 0.517241 h 0.517242 0.517241 v 0.517241 0.517242 h 1.034483 1.034483 v 0.517241 0.517242 H 44.965517 46 v 1.034482 1.034483 h -0.517241 -0.517241 v 1.551724 1.551724 h -0.517242 -0.517241 v 1.551725 1.551724 H 44.965517 46 v 0.517241 0.517241 h -0.517241 -0.517241 v 0.517242 0.517241 H 45.482759 46 v 0.517242 0.517241 h -0.517241 -0.517242 v -0.517241 -0.517242 h -0.517241 -0.517241 v -0.51724 -0.517242 h -0.517241 -0.517242 v 1.034482 1.034483 h 0.517242 0.517241 v 0.517242 0.517241 h -0.517241 -0.517242 v 0.517242 0.517241 h 0.517242 0.517241 v 0.517241 0.517241 h 0.517241 0.517241 V 42.896552 41.862069 H 45.482759 46 v 1.034483 1.034483 H 45.482759 44.965517 V 44.965517 46 h -0.517241 -0.517241 v -1.034483 -1.034483 h -0.517241 -0.517242 v 0.517242 0.517241 h -0.517241 -0.517242 v -0.517241 -0.517242 h 0.517242 0.517241 v -0.517241 -0.517241 h -1.034483 -1.034483 v 1.034483 1.034483 H 40.310345 39.793103 V 45.482759 46 Z m 2.068966,-1.034483 h 0.51724 v -1.551724 -1.551724 h -0.51724 -0.517242 v 0.517241 0.517242 H 38.241379 37.724138 V 42.37931 41.862069 h -0.517241 -0.517242 v -1.034483 -1.034483 h -0.517241 -0.517242 v -0.51724 -0.517243 h 0.517242 0.517241 v -1.034482 -1.034483 h 1.034483 1.034482 v -1.034483 -1.034483 h 0.517243 0.51724 v -0.517241 -0.517241 h 0.517242 0.517241 v 0.517241 0.517241 h 0.517242 0.517241 v 1.034483 1.034483 h 0.517241 0.517242 V 35.655172 34.620689 H 42.37931 41.862069 v -0.517241 -0.517241 h -0.517241 -0.517242 v -0.517241 -0.517242 h -1.551724 -1.551724 v 0.517242 0.517241 H 36.689655 35.655172 V 33.068966 32.551724 H 35.137931 34.620689 V 32.034483 31.517241 H 34.103448 33.586207 V 31 30.482758 h -1.551724 -1.551724 v -1.034482 -1.034483 h 1.034482 1.034483 v 0.517241 0.517242 h 0.517242 0.517241 v -0.517242 -0.517241 h 0.517241 0.517241 v 1.034483 1.034482 h 0.517242 0.517242 v -0.517241 -0.517241 h 0.517241 0.517241 v 0.517241 0.517241 h 0.517242 0.517241 V 31 31.517241 h 0.517241 0.517241 v -1.034483 -1.034482 h 0.517243 0.51724 v 1.034482 1.034483 h 1.034483 1.034483 v 0.517242 0.517241 h 0.517241 0.517242 v 0.517242 0.517241 h 0.517241 0.517241 v -1.034483 -1.034483 h -0.517241 -0.517241 v -1.034483 -1.034482 h -0.517241 -0.517242 v -0.517242 -0.517241 h -0.517241 -0.517242 v -0.517242 -0.51724 h -0.517241 -0.517242 v -0.517242 -0.517241 h -0.51724 -0.517242 v 0.517241 0.517242 h 0.517242 0.51724 v 0.51724 0.517242 H 38.75862 37.724138 v 0.517241 0.517242 h -0.517241 -0.517242 v -0.517242 -0.517241 h -1.034483 -1.034483 v -0.517242 -0.51724 h -0.517241 -0.517241 v 0.51724 0.517242 h -0.517241 -0.517242 v -1.551724 -1.551724 h 0.517242 0.517241 v 0.517241 0.517242 h 0.517241 0.517241 v -0.517242 -0.517241 h -0.517241 -0.517241 v -1.034482 -1.034484 h 0.517241 0.517241 v 0.517242 0.517242 h 0.517242 0.517242 v -0.517242 -0.517242 h 0.517241 0.517241 v -0.517241 -0.517242 h -0.517241 -0.517241 v 0.517242 0.517241 h -0.517242 -0.517242 v -1.034482 -1.034483 h 0.517242 0.517242 v -1.034483 -1.034482 h 0.517241 0.517241 v -1.034483 -1.034483 h -0.517241 -0.517241 v 1.034483 1.034483 h -0.517242 -0.517242 v -0.517242 -0.517241 h -0.517241 -0.517241 v 0.517241 0.517242 h 0.517241 0.517241 v 1.034482 1.034483 h -0.517241 -0.517241 v -0.517241 -0.517242 h -0.517241 -0.517242 v 0.517242 0.517241 h -1.034483 -1.034482 v 0.517241 0.517242 h -0.517242 -0.517241 v 1.034483 1.034483 h 0.517241 0.517242 v 0.517241 0.517241 H 31 31.517241 v 0.517241 0.517242 H 31 30.482758 v 0.517241 0.517242 h -0.517241 -0.517241 v -0.517242 -0.517241 h -0.517242 -0.517241 v -0.517242 -0.517241 h -0.517242 -0.51724 v 0.517241 0.517242 h 0.51724 0.517242 v 0.517241 0.517241 h -0.517242 -0.51724 v 0.517241 0.517242 h -1.551725 -1.551723 v 0.517241 0.517242 h 0.51724 0.517242 v 0.517241 0.517241 H 24.275862 23.241379 V 31 31.517241 h 1.551724 1.551725 v 1.034483 1.034483 h 1.034482 1.034483 v -0.517241 -0.517242 h -0.517242 -0.51724 v -0.517241 -0.517242 h 1.034483 1.034482 v 1.551725 1.551723 h -1.551724 -1.551724 v 0.517242 0.517242 h 1.034483 1.034483 v 0.517241 0.517241 H 26.862069 25.310345 V 35.137931 33.586207 H 23.75862 22.206896 v 0.517241 0.517241 h 0.517242 0.517241 v 0.517242 0.517242 h -0.517241 -0.517242 v 0.517241 0.517241 h 0.517242 0.517241 v -0.517241 -0.517241 h 0.517242 0.517242 v 0.517241 0.517241 h 0.51724 0.517242 v 1.551724 1.551724 h 0.517241 0.517242 v 0.517242 0.517241 h 0.517241 0.517241 v 0.517242 0.517241 h 0.517241 0.517242 v -0.517241 -0.517242 h 0.517241 0.517242 v -0.517241 -0.517242 h 0.517241 0.517241 V 39.275863 38.75862 H 31 31.517241 v 0.517243 0.51724 h 1.034483 1.034483 v 0.517242 0.517241 h 0.517241 0.517241 v 0.517242 0.517241 h 1.034484 1.034482 v 0.517241 0.517242 h 0.517242 0.517241 v 0.517241 0.517241 h 0.517241 0.517241 v 0.517242 0.517241 z m -4.137932,-4.137931 h -0.517242 v -0.517241 -0.517242 h 0.517242 0.517242 v 0.517242 0.517241 z M 27.37931,39.793103 H 26.344828 V 38.75862 37.724138 h 0.517241 0.517241 v 0.517241 0.517241 h 0.517241 0.517242 v -0.517241 -0.517241 h 0.517241 0.517242 v -1.551724 -1.551725 h 0.517241 0.517241 V 33.068966 31.517241 H 29.965517 29.448276 V 31 30.482758 h 0.517241 0.517241 V 31 31.517241 H 31 31.517241 v 1.551725 1.551723 h 1.034483 1.034483 v -0.517241 -0.517241 h 0.517241 0.517241 v 1.034482 1.034484 h 0.517242 0.517242 v 1.034482 1.034483 h -0.517242 -0.517242 v -0.517241 -0.517242 h -0.517241 -0.517241 v 1.034483 1.034482 H 33.068966 32.551724 V 38.241379 37.724138 H 31 29.448276 v 0.517241 0.517241 h -0.517242 -0.517241 v 0.517243 0.51724 z m 5.689655,-3.103448 h 0.517242 v -0.517241 -0.517241 h -0.517242 -0.517241 v 0.517241 0.517241 z m 4.137932,-1.034482 h -0.517242 v -0.517242 -0.517242 h 0.517242 0.517241 v 0.517242 0.517242 z m -4.137932,-3.103449 h -0.517241 v -0.517241 -0.517241 h 0.517241 0.517242 v 0.517241 0.517241 z M 26.862069,31.517241 H 26.344828 V 31 30.482758 h 0.517241 0.517241 V 31 31.517241 Z m 1.034482,-2.068965 h -0.51724 v -0.517242 -0.517241 h 0.51724 0.517242 v 0.517241 0.517242 z M 31,23.241379 H 30.482758 V 22.724138 22.206896 H 31 31.517241 v 0.517242 0.517241 z m 2.068966,0 h -0.517242 v -1.034483 -1.034482 h 0.517242 0.517241 v 1.034482 1.034483 z m 9.310345,18.62069 h 0.517241 v -0.517241 -0.517242 h -0.517241 -0.517242 v 0.517242 0.517241 z m -3.103448,-1.034483 h 1.551723 v -1.551723 -1.551725 h -1.551723 -1.551725 v 1.551725 1.551723 z m 0,-1.034483 h -0.517242 v -0.51724 -0.517242 h 0.517242 0.51724 v 0.517242 0.51724 z M 19.620689,28.413793 h 0.517242 v -0.517242 -0.51724 h 1.034483 1.034482 v 0.51724 0.517242 h 0.517242 0.517241 v -0.517242 -0.51724 h 0.517241 0.517243 V 26.862069 26.344828 H 23.75862 23.241379 v -0.517242 -0.517241 h -0.517241 -0.517242 v 0.517241 0.517242 h -1.034482 -1.034483 v -0.517242 -0.517241 h -0.517242 -0.517241 v 0.517241 0.517242 h 0.517241 0.517242 v 0.517241 0.517241 h -0.517242 -0.517241 v 0.517241 0.517242 z m 3.103449,-1.034483 h -0.517242 v -0.517241 -0.517241 h 0.517242 0.517241 v 0.517241 0.517241 z m 13.448276,0 h 0.517241 v -0.517241 -0.517241 h -0.517241 -0.517242 v 0.517241 0.517241 z M 25.310345,25.310345 h 1.034483 v -0.517242 -0.51724 h -1.034483 -1.034483 v 0.51724 0.517242 z M 31,44.965517 H 29.448276 V 44.448276 43.931035 H 31 32.551724 v 0.517241 0.517241 z m -5.689655,-1.034483 h -1.034482 v -1.034482 -1.034483 h 0.51724 0.517242 v 0.517241 0.517242 h 0.517241 0.517242 v 0.517241 0.517241 z M 16.517241,35.655172 H 16 v -0.517241 -0.517242 h 0.517241 0.517242 V 33.586207 32.551724 H 16.517241 16 V 31 29.448276 h 1.034483 1.034482 V 31 32.551724 h 0.517241 0.517242 v 0.517242 0.517241 h -0.517242 -0.517241 v 0.517241 0.517241 h -0.517241 -0.517241 v 0.517242 0.517242 z m 3.103448,-4.137931 H 19.103448 V 31 30.482758 h 0.517241 0.517242 V 31 31.517241 Z m 25.86207,-3.103448 H 44.965518 V 27.896551 27.37931 h -1.034483 -1.034483 v -0.517241 -0.517241 h 1.034483 1.034483 V 25.827586 25.310345 H 44.448276 43.931035 V 24.793103 24.275862 H 44.965517 46 v 1.034483 1.034483 h -0.517241 -0.517241 v 0.517241 0.517241 H 45.482759 46 v 0.517241 0.517242 z M 19.620689,23.241379 H 16 V 19.620689 16 h 3.620689 3.62069 v 3.620689 3.62069 z m 0,-1.034483 h 2.586207 v -2.586207 -2.586206 h -2.586207 -2.586206 v 2.586206 2.586207 z m 0,-1.034482 h -1.551724 v -1.551725 -1.551724 h 1.551724 1.551725 v 1.551724 1.551725 z m 22.758622,2.068965 h -3.62069 V 19.620689 16 H 42.379311 46 v 3.620689 3.62069 z m 0,-1.034483 h 2.586207 v -2.586207 -2.586206 h -2.586207 -2.586208 v 2.586206 2.586207 z m 0,-1.034482 h -1.551725 v -1.551725 -1.551724 h 1.551725 1.551724 v 1.551724 1.551725 z m -16.551725,0 h -0.517241 v -0.517242 -0.517241 h -0.517242 -0.51724 v -0.517242 -0.517241 h 0.51724 0.517242 V 18.586206 18.068965 H 24.793103 24.275862 V 17.034483 16 h 1.034483 1.034483 v 0.517241 0.517242 h 1.034482 1.034483 v 0.517241 0.517241 h -0.517242 -0.51724 v 0.517242 0.517241 h 1.034483 1.034482 v 0.517241 0.517242 h -1.034482 -1.034483 v -0.517242 -0.517241 h -0.517242 -0.517241 v 1.034483 1.034483 z m 0,-3.103449 h 0.517242 v -0.517241 -0.517241 h -0.517242 -0.517241 v 0.517241 0.517241 z m 4.137932,0 H 29.448276 V 17.034483 16 h 0.517241 0.517241 v 1.034483 1.034482 z m 2.068965,-1.034482 H 31.517241 V 16.517241 16 h 0.517242 0.517241 v 0.517241 0.517242 z"
       id="path1" />
  </g>
</svg>
