<?xml version="1.0" encoding="UTF-8" standalone="no"?>
<!-- Created with Inkscape (http://www.inkscape.org/) -->

<svg
   width="37mm"
   height="3.8mm"
   viewBox="0 0 37 3.8"
   version="1.1"
   id="svg1"
   xml:space="preserve"
   sodipodi:docname="SparkGap2.svg"
   inkscape:version="1.4.2 (f4327f4, 2025-05-13)"
   xmlns:inkscape="http://www.inkscape.org/namespaces/inkscape"
   xmlns:sodipodi="http://sodipodi.sourceforge.net/DTD/sodipodi-0.dtd"
   xmlns="http://www.w3.org/2000/svg"
   xmlns:svg="http://www.w3.org/2000/svg"><sodipodi:namedview
     id="namedview1"
     pagecolor="#ffffff"
     bordercolor="#000000"
     borderopacity="0.25"
     inkscape:showpageshadow="2"
     inkscape:pageopacity="0.0"
     inkscape:pagecheckerboard="0"
     inkscape:deskcolor="#d1d1d1"
     inkscape:document-units="mm"
     inkscape:zoom="4"
     inkscape:cx="-6"
     inkscape:cy="48.625"
     inkscape:current-layer="layer1" /><defs
     id="defs1" /><g
     inkscape:label="Layer 1"
     inkscape:groupmode="layer"
     id="layer1"><path
       style="fill:#000000"
       d="M 0.56375333,2.816639 0.4507001,2.797666 0.365359,2.7581352 0.28001791,2.7186044 0.22523031,2.6689861 0.17044272,2.6193678 0.12699679,2.5346596 0.08355086,2.4499514 0.05942303,2.3012545 0.0352952,2.1525576 0.03511888,2.0650307 0.03494256,1.9775038 h 0.3171717 0.31717169 l -0.0627427,0.074565 -0.0627427,0.074565 0.0128573,0.079231 0.0128573,0.07923 0.0273279,0.032928 0.0273279,0.032928 h 0.0888369 0.0888369 l 0.0386327,-0.038633 0.0386327,-0.038633 0.0205347,-0.05401 0.0205347,-0.05401 L 0.88270757,2.064561 0.84523542,1.963456 0.72601023,1.8976568 0.60678503,1.8318577 0.52509325,1.7884041 0.44340147,1.7449506 0.31747521,1.6569977 0.19154895,1.5690449 0.12110409,1.4321766 0.05065922,1.2953082 0.05186895,1.0937392 0.05307867,0.89217019 0.11206455,0.7595071 0.17105042,0.62684401 0.29555569,0.54427181 0.42006096,0.46169962 0.57914042,0.4392382 l 0.15907946,-0.0224614 0.13820175,0.0222567 0.13820177,0.0222567 0.058661,0.0223031 0.058662,0.0223031 v 0.0226446 0.0226446 l 0.063315,0.0304492 0.063315,0.0304492 0.051636,0.0767098 0.051636,0.0767098 0.025092,0.11699819 0.025092,0.11699819 V 1.1383944 1.2772886 H 1.0875713 l -0.32446133,0 0.0677157,-0.07249 0.0677157,-0.07249 v -0.067553 -0.0675531 l -0.046681,-0.046681 -0.046681,-0.046681 -0.0875269,3.5741e-4 -0.0875269,3.574e-4 -0.0341689,0.0216114 -0.0341689,0.0216114 -8.419e-4,0.13947835 -8.419e-4,0.1394784 0.0582268,0.062035 0.0582268,0.062035 0.17088319,0.085638 0.17088318,0.085638 0.137532,0.1112823 0.137532,0.1112823 0.049449,0.1105934 0.049449,0.1105934 0.012484,0.1633836 0.012484,0.1633835 -0.048778,0.1400431 -0.048778,0.140043 -0.088018,0.07752 -0.088018,0.07752 -0.071274,0.033821 -0.071273,0.033822 -0.13881317,0.022731 -0.13881315,0.022731 -0.0233405,-0.00261 -0.0233405,-0.00261 z M 1.5987567,1.7340956 V 0.62708872 l -0.029944,-0.0308428 -0.029944,-0.0308428 -0.055367,-0.0787073 -0.055367,-0.0787073 0.5229455,0.0114102 0.5229456,0.0114102 0.081692,0.0296845 0.081692,0.0296844 0.048185,0.0434478 0.048185,0.0434478 0.022456,0 0.022456,0 0.062559,0.0964804 0.062559,0.0964804 0.026839,0.12928406 0.026839,0.12928404 -0.00984,0.3285726 -0.00984,0.3285727 -0.040518,0.093362 -0.040519,0.093362 -0.074674,0.078798 -0.074674,0.078798 -0.1039676,0.046942 -0.1039675,0.046942 -0.2052942,0.011705 -0.2052942,0.011705 V 2.378689 2.6100157 l 0.033472,0.064727 0.033472,0.064727 0.03655,0.030334 0.03655,0.030334 V 2.82062 2.8411026 H 1.9138535 1.5987567 Z M 2.4266114,1.604866 2.4681238,1.5589953 2.479605,1.3539555 2.4910861,1.1489158 2.463875,1.048694 2.4366639,0.94847219 2.3779687,0.92615632 2.3192735,0.90384045 H 2.2040904 2.0889074 V 1.2772886 1.6507367 H 2.2370032 2.385099 Z m 0.2755181,1.1895556 0.059345,-0.046681 h 0.012383 0.012383 l 0.067051,-0.064186 0.067051,-0.064186 0.039021,-0.062753 0.039021,-0.062753 L 3.0666032,2.2181773 3.1348212,1.942493 3.1737329,1.80245 3.2126446,1.6624069 3.2799326,1.4056614 3.3472207,1.1489158 3.417993,0.88049994 3.4887652,0.6120841 3.552232,0.36211276 l 0.063467,-0.24997135 0.00764,0.00764 0.00764,0.00764 0.023122,0.14357255 0.023122,0.14357255 0.1059386,0.35550418 0.1059385,0.3555042 0.032834,0.1693672 0.032834,0.1693673 0.061377,0.2274214 0.061377,0.2274213 0.030401,0.070021 0.030401,0.070022 0.036331,0.1517133 0.036331,0.1517133 0.013844,0.08839 0.013844,0.08839 0.099812,0.1041694 0.099812,0.1041693 h 0.027341 0.027341 V 1.6641978 0.58065496 l -0.058351,-0.0693466 -0.058351,-0.0693465 v -0.0169592 -0.0169592 l 0.5076561,0.0114439 0.5076561,0.0114438 0.081692,0.0300696 0.081692,0.0300696 0.1083641,0.0897601 0.1083642,0.0897601 0.041709,0.0991196 0.041709,0.0991196 0.00991,0.35327261 0.00991,0.3532725 -0.039473,0.1368781 -0.039473,0.1368781 -0.127183,0.1218217 -0.1271831,0.1218216 0.050761,0.099913 0.050761,0.099913 0.121942,0.1867241 0.121942,0.1867241 0.044037,0.038085 0.044037,0.038085 0.052516,0.016004 0.052516,0.016004 V 1.7095017 0.64477669 l -0.033472,-0.0647273 -0.033472,-0.0647273 -0.03655,-0.0303336 -0.03655,-0.0303336 0,-0.0204826 V 0.41368979 H 6.2551882 6.5702851 V 0.75212715 1.0905645 h 0.021326 0.021326 l 0.1245521,-0.22618098 0.1245521,-0.22618099 0.058875,-0.10642124 0.058875,-0.10642125 0.3561636,-0.006447 0.3561637,-0.006447 -0.088272,0.0789353 -0.088271,0.0789353 -0.049094,0.0256988 -0.049094,0.0256988 -0.088648,0.17022886 -0.088648,0.17022886 -0.073003,0.11670258 -0.073003,0.1167025 -0.040165,0.073623 -0.040165,0.073623 v 0.035382 l 0,0.035382 0.092617,0.2728243 0.092617,0.2728244 0.022286,0.026852 0.022286,0.026852 0.051312,0.2098419 0.051312,0.209842 0.033021,0.064655 0.033021,0.064655 0.099943,0.098729 0.099944,0.098728 0.056763,0.040189 0.056763,0.040189 -0.3714179,-0.00518 -0.3714179,-0.00518 -0.1505446,-0.4317994 -0.1505445,-0.4317994 -0.03821,-0.09911 -0.03821,-0.09911 -0.017505,-8.75e-5 -0.017505,-8.75e-5 v 0.4069395 0.4069394 l 0.024825,0.065706 0.024825,0.065706 0.061584,0.064552 0.061584,0.064552 -0.6748728,-0.0062 -0.6748728,-0.0062 -0.034168,-0.070022 -0.034168,-0.070021 -0.046502,-0.093362 -0.046503,-0.093362 -0.051954,-0.063044 -0.051954,-0.063044 -0.043314,-0.093902 -0.043314,-0.093902 -0.017505,-6.022e-4 -0.017505,-6.021e-4 v 0.1949113 0.1949114 l 0.026574,0.07934 0.026574,0.07934 0.047516,0.052516 0.047516,0.052516 H 4.4757594 3.7968677 L 3.7810943,2.7477405 3.7653209,2.6543785 H 3.606972 3.4486231 l -0.014929,0.093362 -0.014929,0.093362 H 3.0307745 2.6427842 Z M 3.6658066,2.0650307 3.6495216,1.9191525 3.6303003,1.8994983 3.611079,1.8798441 l -0.024691,0.078006 -0.024691,0.078005 -0.015437,0.087527 -0.015437,0.087527 h 0.075634 0.075634 z M 5.3352323,1.6003296 5.3622093,1.5499225 5.3742512,1.3569066 5.386293,1.1638907 5.3580382,1.0516809 5.3297835,0.9394711 5.3023352,0.92201318 5.2748868,0.90455526 5.1406789,0.90419786 5.006471,0.90384045 V 1.2772886 1.6507367 H 5.1573631 5.3082552 Z M 8.6709309,2.8077394 8.5425581,2.7782886 8.483768,2.7539737 8.424978,2.7296588 8.3276889,2.6241126 8.2303998,2.5185664 8.1997549,2.4172538 8.16911,2.3159412 V 1.6273962 0.93885121 l 0.04235,-0.12141976 0.04235,-0.12141975 0.1172752,-0.10383832 0.1172752,-0.10383832 0.09712,-0.0271211 0.09712,-0.0271211 0.3442725,-0.0133729 0.3442725,-0.0133729 V 0.73782356 1.0683001 L 9.3127949,1.0300669 9.2544436,0.9918337 v -0.0183728 -0.0183728 l -0.073504,-0.0256238 -0.073504,-0.0256238 -0.1671098,0 -0.1671098,0 -0.045307,0.0331293 -0.045307,0.0331293 V 1.6273962 2.2846934 l 0.046681,0.034166 0.046681,0.034166 0.093362,-0.00687 0.093362,-0.00687 0.042486,-0.081692 0.042486,-0.081692 -0.01029,-0.2463904 -0.01029,-0.2463904 -0.026361,-0.051201 -0.026361,-0.051201 -0.02334,-0.046364 -0.02334,-0.046364 v -0.011987 -0.011987 h 0.3034266 0.3034267 v 0.4158928 0.4158928 l -0.036013,0.1212679 -0.036013,0.1212678 -0.072645,0.082738 -0.072645,0.082738 -0.086918,0.044342 -0.086918,0.044342 -0.1486969,0.024128 -0.148697,0.024128 -0.023341,-0.00178 -0.02334,-0.00178 z m 0.7532652,-0.013318 0.059345,-0.046681 h 0.012383 0.012383 l 0.067051,-0.064186 0.067051,-0.064186 0.038428,-0.061848 0.038428,-0.061848 0.047915,-0.2065676 0.047914,-0.2065677 0.033762,-0.1167026 0.033761,-0.1167025 0.033345,-0.1167025 0.033345,-0.1167026 0.075066,-0.2917563 0.07506,-0.2917564 0.06532,-0.24507529 0.06532,-0.24507533 0.05452,-0.21598739 0.05451,-0.2159874 0.0162,0.0409336 0.0162,0.0409336 0.0016,0.0597788 0.0016,0.0597788 0.101989,0.37370321 0.101989,0.37370324 0.02408,0.044998 0.02408,0.044998 0.01584,0.1167025 0.01584,0.1167026 0.08082,0.3022301 0.08082,0.3022301 0.01829,0.024537 0.01829,0.024537 0.04121,0.186724 0.04121,0.1867241 0.02137,0.084963 0.02137,0.084964 0.09326,0.084255 0.09326,0.084255 h 0.02327 0.02327 V 1.6704452 0.59314986 l -0.05835,-0.0765025 -0.05835,-0.0765025 v -0.0160508 -0.0160508 l 0.507656,0.0114439 0.507656,0.0114438 0.08169,0.0300696 0.08169,0.0300696 0.109249,0.0905016 0.10925,0.0905016 0.04246,0.11004834 0.04246,0.11004834 V 1.2772886 1.6624069 l -0.04162,0.1078316 -0.04162,0.1078315 -0.09308,0.086125 -0.09308,0.086125 -0.08703,0.036641 -0.08703,0.036641 -0.20423,0.01188 -0.204229,0.01188 v 0.2150144 0.2150144 l 0.02657,0.07934 0.02657,0.07934 0.04752,0.052516 0.04752,0.052516 h -0.678892 -0.678892 l -0.01577,-0.093362 -0.01577,-0.093362 H 10.329039 10.17069 l -0.01493,0.093362 -0.01493,0.093362 H 9.7528411 9.3648508 Z m 0.9725869,-0.6476991 -0.0013,-0.064186 -0.01656,-0.093362 -0.01656,-0.093362 -0.02294,0.00443 -0.02294,0.00443 -0.02693,0.1122698 -0.02693,0.1122699 -0.0022,0.040846 -0.0022,0.040846 h 0.07002 0.07002 z m 1.660516,-0.5463929 0.02698,-0.050407 0.01204,-0.1930159 0.01204,-0.1930159 -0.02825,-0.1122098 -0.02825,-0.1122098 -0.02745,-0.0174579 -0.02745,-0.0174579 -0.134207,-3.574e-4 -0.134208,-3.5741e-4 V 1.2772886 1.6507367 h 0.150892 0.150892 z m 1.287247,0.8031385 0.01113,-0.4376346 0.06012,-0.1312979 0.06012,-0.131298 0.159087,-0.1112097 0.159087,-0.1112097 0.14829,-0.070834 0.14829,-0.070834 0.05973,-0.090255 0.05973,-0.090255 -0.0031,-0.086554 -0.0031,-0.0865543 -0.04995,-0.0408459 -0.04995,-0.0408459 h -0.08017 -0.08017 l -0.05729,0.0572903 -0.05729,0.0572903 v 0.051103 0.051104 l 0.08753,0.077359 0.08753,0.077359 -0.335958,9.716e-4 -0.335958,9.716e-4 0.01563,-0.1874757 0.01563,-0.18747576 0.04826,-0.12898043 0.04826,-0.12898042 0.108682,-0.0801237 0.108682,-0.0801237 0.09336,-0.0263016 0.09336,-0.0263016 0.186724,0.001258 0.186724,0.001258 0.07002,0.0309431 0.07002,0.0309431 0.09543,0.061824 0.09542,0.061824 0.0561,0.12462658 0.0561,0.12462658 -7.68e-4,0.21006461 -7.68e-4,0.2100645 -0.06674,0.1400431 -0.06674,0.140043 -0.03733,0.035875 -0.03733,0.035875 -0.07641,0.031372 -0.07641,0.031372 -0.01695,0.027254 -0.01695,0.027254 -0.134208,0.064764 -0.134208,0.064764 v 0.021624 0.021624 h -0.03382 -0.03382 l -0.05954,0.07806 -0.05954,0.07806 v 0.1320048 0.1320048 h 0.198395 0.198394 v -0.098213 -0.098213 l -0.08643,-0.088511 -0.08643,-0.088511 h 0.319833 l 0.319834,0 v 0.4317994 0.4317994 h -0.679683 -0.679683 z"
       id="path2" /><path
       style="fill:#000000"
       id="path1" /><path
       d="M 0.32275391,3.6115234 H 0.265625 L 0.05908203,3.08125 H 0.02734375 q -0.01123047,0 -0.01611328,-0.00195 Q 0.00634766,3.0768554 0.00292969,3.0719726 0,3.0666015 0,3.0607421 0,3.0548828 0.00292969,3.05 q 0.00341797,-0.00537 0.00830078,-0.00732 0.0048828,-0.00244 0.01611328,-0.00244 h 0.15283203 q 0.0117188,0 0.0161133,0.00244 0.004883,0.00195 0.007813,0.00732 0.003418,0.00488 0.003418,0.010742 0,0.00586 -0.003418,0.01123 -0.003418,0.00488 -0.008301,0.00732 -0.004395,0.00195 -0.015625,0.00195 H 0.1015625 l 0.19042969,0.4892578 h 0.00293 L 0.48291016,3.08125 h -0.078125 q -0.0117188,0 -0.0166016,-0.00195 -0.004883,-0.00244 -0.008301,-0.00732 -0.00293,-0.00537 -0.00293,-0.01123 0,-0.00586 0.003418,-0.010742 0.003418,-0.00537 0.007813,-0.00732 0.004883,-0.00244 0.0166016,-0.00244 h 0.15234375 q 0.0117188,0 0.0166016,0.00244 0.004883,0.00195 0.007813,0.00732 0.003418,0.00488 0.003418,0.010742 0,0.00586 -0.003418,0.01123 -0.003418,0.00488 -0.008301,0.00732 -0.004395,0.00195 -0.0161133,0.00195 h -0.03125 z m 0.68749999,0 v -0.059082 q -0.0893555,0.075195 -0.19091796,0.075195 -0.0737305,0 -0.11523438,-0.037109 -0.0415039,-0.037598 -0.0415039,-0.091797 0,-0.05957 0.0546875,-0.1040039 0.0546875,-0.044434 0.15966797,-0.044434 0.0283203,0 0.0615234,0.00391 0.0332031,0.00342 0.0717773,0.01123 v -0.066406 q 0,-0.033691 -0.03125,-0.058594 -0.03125,-0.024902 -0.09375,-0.024902 -0.0478516,0 -0.13427735,0.027832 -0.015625,0.00488 -0.0200195,0.00488 -0.007813,0 -0.0136719,-0.00586 -0.005371,-0.00586 -0.005371,-0.014649 0,-0.0083 0.004883,-0.013184 0.006836,-0.00732 0.0551758,-0.02002 0.0761719,-0.020508 0.11523437,-0.020508 0.0776367,0 0.12109377,0.038574 0.043457,0.038086 0.043457,0.086426 v 0.2714844 h 0.054687 q 0.015137,0 0.021484,0.00586 0.00635,0.00537 0.00635,0.014648 0,0.00879 -0.00635,0.014648 -0.00635,0.00586 -0.021484,0.00586 z m 0,-0.2041016 q -0.0288086,-0.0083 -0.0610351,-0.012207 -0.0322266,-0.00391 -0.0678711,-0.00391 -0.0893555,0 -0.13964844,0.038574 -0.0380859,0.028809 -0.0380859,0.068848 0,0.037109 0.0288086,0.0625 0.0292969,0.025391 0.0849609,0.025391 0.0532227,0 0.0986328,-0.020996 0.0458984,-0.021484 0.0942383,-0.067871 z M 1.5131836,2.9987304 v 0.5717774 h 0.1611328 q 0.015137,0 0.021484,0.00586 0.00635,0.00537 0.00635,0.014648 0,0.00879 -0.00635,0.014648 -0.00635,0.00586 -0.021484,0.00586 H 1.3110352 q -0.014649,0 -0.020996,-0.00586 -0.00635,-0.00586 -0.00635,-0.014648 0,-0.00928 0.00635,-0.014648 0.00635,-0.00586 0.020996,-0.00586 H 1.472168 V 3.0402343 H 1.3540039 q -0.014648,0 -0.021484,-0.00586 -0.00635,-0.00586 -0.00635,-0.015137 0,-0.00879 0.00635,-0.014648 0.00635,-0.00586 0.021484,-0.00586 z M 2.128418,3.6115234 H 2.059082 L 1.890625,3.2301757 h -0.041992 q -0.014648,0 -0.020996,-0.00586 -0.00635,-0.00586 -0.00635,-0.015137 0,-0.00879 0.00635,-0.014648 0.00635,-0.00586 0.020996,-0.00586 h 0.1538086 q 0.014648,0 0.020996,0.00586 0.00635,0.00586 0.00635,0.015137 0,0.00879 -0.00635,0.014649 -0.00635,0.00586 -0.020996,0.00586 h -0.067871 l 0.1503906,0.3403321 h 0.018066 l 0.147461,-0.3403321 h -0.068359 q -0.014648,0 -0.020996,-0.00586 -0.00635,-0.00586 -0.00635,-0.015137 0,-0.00879 0.00635,-0.014648 0.00635,-0.00586 0.020996,-0.00586 h 0.1542969 q 0.015137,0 0.020996,0.00586 0.00635,0.00586 0.00635,0.015137 0,0.00879 -0.00635,0.014649 -0.00586,0.00586 -0.020996,0.00586 H 2.2949219 Z M 2.9145508,3.4098632 H 2.496582 q 0.010742,0.07959 0.066406,0.128418 0.056152,0.04834 0.1386719,0.04834 0.045898,0 0.096191,-0.015137 0.050293,-0.015137 0.082031,-0.040039 0.00928,-0.00732 0.016113,-0.00732 0.00781,0 0.013672,0.00635 0.00586,0.00586 0.00586,0.01416 0,0.0083 -0.00781,0.016113 -0.023437,0.024414 -0.083496,0.045898 -0.05957,0.020996 -0.1225586,0.020996 -0.1054688,0 -0.1762696,-0.068848 -0.070312,-0.069336 -0.070312,-0.1674805 0,-0.089355 0.065918,-0.1533203 0.066406,-0.063965 0.1640625,-0.063965 0.1005859,0 0.1655273,0.065918 0.064941,0.06543 0.063965,0.1699218 z m -0.041504,-0.041504 q -0.012207,-0.067871 -0.064453,-0.1103515 -0.051758,-0.04248 -0.1235352,-0.04248 -0.071777,0 -0.1235352,0.041992 -0.051758,0.041992 -0.064453,0.1108398 z M 3.4726563,3.6115234 H 3.4082031 L 3.2919922,3.2057617 3.1782227,3.6115234 H 3.1137695 L 3.0532227,3.08125 h -0.015137 q -0.014648,0 -0.020996,-0.00537 -0.00635,-0.00586 -0.00635,-0.015137 0,-0.00928 0.00635,-0.014648 0.00635,-0.00586 0.020996,-0.00586 h 0.1523438 q 0.015137,0 0.021484,0.00586 0.00635,0.00537 0.00635,0.014648 0,0.00928 -0.00635,0.015137 -0.00635,0.00537 -0.021484,0.00537 h -0.095703 l 0.054199,0.4833984 0.1108398,-0.3979492 h 0.062988 L 3.4365234,3.5646484 3.4897461,3.08125 h -0.096191 q -0.014648,0 -0.020996,-0.00537 -0.00635,-0.00586 -0.00635,-0.015137 0,-0.00928 0.00635,-0.014648 0.00635,-0.00586 0.020996,-0.00586 h 0.1513672 q 0.015137,0 0.021484,0.00586 0.00635,0.00537 0.00635,0.014648 0,0.00928 -0.00635,0.015137 -0.00635,0.00537 -0.021484,0.00537 H 3.5297852 Z M 3.9130859,2.9782226 v 0.105957 h -0.060547 v -0.105957 z m 0.00146,0.2104492 v 0.381836 h 0.1611328 q 0.015137,0 0.021484,0.00586 0.00635,0.00537 0.00635,0.014648 0,0.00879 -0.00635,0.014648 -0.00635,0.00586 -0.021484,0.00586 H 3.7124023 q -0.014648,0 -0.020996,-0.00586 -0.00635,-0.00586 -0.00635,-0.014648 0,-0.00928 0.00635,-0.014648 0.00635,-0.00586 0.020996,-0.00586 H 3.8735352 V 3.2301757 H 3.7539063 q -0.014649,0 -0.021484,-0.00586 -0.00635,-0.00586 -0.00635,-0.014649 0,-0.00928 0.00635,-0.015137 0.00635,-0.00586 0.021484,-0.00586 z m 0.7578125,0 v 0.036621 L 4.3652344,3.5705078 h 0.2773437 v -0.056641 q 0,-0.014648 0.00537,-0.020996 0.00586,-0.00635 0.015137,-0.00635 0.00928,0 0.015137,0.00635 0.00586,0.00635 0.00586,0.020996 l -4.883e-4,0.097656 h -0.375 V 3.5749023 L 4.6142578,3.2301757 H 4.359375 v 0.055664 q 0,0.014648 -0.00586,0.020996 -0.00586,0.00635 -0.014648,0.00635 -0.00928,0 -0.015137,-0.00635 -0.00586,-0.00635 -0.00586,-0.020996 v -0.097168 z m 0.5385742,0.4228516 v -0.059082 q -0.089355,0.075195 -0.190918,0.075195 -0.07373,0 -0.1152343,-0.037109 -0.041504,-0.037598 -0.041504,-0.091797 0,-0.05957 0.054687,-0.1040039 0.054687,-0.044434 0.159668,-0.044434 0.02832,0 0.061523,0.00391 0.033203,0.00342 0.071777,0.01123 v -0.066406 q 0,-0.033691 -0.03125,-0.058594 -0.03125,-0.024902 -0.09375,-0.024902 -0.047852,0 -0.1342773,0.027832 -0.015625,0.00488 -0.02002,0.00488 -0.00781,0 -0.013672,-0.00586 -0.00537,-0.00586 -0.00537,-0.014649 0,-0.0083 0.00488,-0.013184 0.00684,-0.00732 0.055176,-0.02002 0.076172,-0.020508 0.1152344,-0.020508 0.077637,0 0.1210938,0.038574 0.043457,0.038086 0.043457,0.086426 v 0.2714844 h 0.054687 q 0.015137,0 0.021484,0.00586 0.00635,0.00537 0.00635,0.014648 0,0.00879 -0.00635,0.014648 -0.00635,0.00586 -0.021484,0.00586 z m 0,-0.2041016 q -0.028809,-0.0083 -0.061035,-0.012207 -0.032227,-0.00391 -0.067871,-0.00391 -0.089355,0 -0.1396484,0.038574 -0.038086,0.028809 -0.038086,0.068848 0,0.037109 0.028809,0.0625 0.029297,0.025391 0.084961,0.025391 0.053223,0 0.098633,-0.020996 0.045898,-0.021484 0.094238,-0.067871 z m 0.4331055,-0.21875 v 0.1035157 q 0.080078,-0.072266 0.1196289,-0.092773 0.040039,-0.020996 0.07373,-0.020996 0.036621,0 0.067871,0.024902 0.031738,0.024414 0.031738,0.037109 0,0.00928 -0.00635,0.015625 -0.00586,0.00586 -0.015137,0.00586 -0.00488,0 -0.0083,-0.00146 -0.00342,-0.00195 -0.012695,-0.01123 -0.01709,-0.01709 -0.029785,-0.023437 -0.012695,-0.00635 -0.024902,-0.00635 -0.026855,0 -0.064941,0.021484 -0.037598,0.021484 -0.1308593,0.1049805 v 0.2246094 h 0.1816406 q 0.015137,0 0.021484,0.00586 0.00635,0.00537 0.00635,0.014648 0,0.00879 -0.00635,0.014648 -0.00635,0.00586 -0.021484,0.00586 H 5.5039062 q -0.014648,0 -0.020996,-0.00537 -0.00635,-0.00586 -0.00635,-0.014648 0,-0.0083 0.00586,-0.013672 0.00635,-0.00586 0.021484,-0.00586 h 0.099121 V 3.2301757 h -0.075684 q -0.014648,0 -0.020996,-0.00586 Q 5.5,3.218457 5.5,3.2091796 q 0,-0.00879 0.00586,-0.014648 0.00635,-0.00586 0.021484,-0.00586 z M 6.4941406,2.9987304 v 0.5717774 h 0.054687 q 0.015137,0 0.021484,0.00586 0.00635,0.00537 0.00635,0.014648 0,0.00879 -0.00635,0.014648 -0.00635,0.00586 -0.021484,0.00586 h -0.096191 v -0.081543 q -0.071289,0.097656 -0.1811523,0.097656 -0.055664,0 -0.1069336,-0.029297 -0.050781,-0.029785 -0.080566,-0.084473 -0.029297,-0.054687 -0.029297,-0.1127929 0,-0.058594 0.029297,-0.112793 0.029785,-0.054687 0.080566,-0.084473 0.05127,-0.029785 0.1074219,-0.029785 0.1074218,0 0.180664,0.097656 V 3.0402343 h -0.054687 q -0.015137,0 -0.021484,-0.00586 -0.00635,-0.00586 -0.00635,-0.015137 0,-0.00879 0.00635,-0.014648 0.00635,-0.00586 0.021484,-0.00586 z m -0.041504,0.4023438 q 0,-0.078125 -0.052734,-0.131836 -0.052734,-0.053711 -0.1254882,-0.053711 -0.073242,0 -0.1259766,0.053711 -0.052734,0.053711 -0.052734,0.131836 0,0.077637 0.052734,0.1318359 0.052734,0.053711 0.1259766,0.053711 0.072754,0 0.1254882,-0.053711 0.052734,-0.054199 0.052734,-0.1318359 z M 7.6943359,2.9987304 v 0.5717774 h 0.054687 q 0.015137,0 0.021484,0.00586 0.00635,0.00537 0.00635,0.014648 0,0.00879 -0.00635,0.014648 -0.00635,0.00586 -0.021484,0.00586 H 7.652832 v -0.081543 q -0.071289,0.097656 -0.1811523,0.097656 -0.055664,0 -0.1069336,-0.029297 -0.050781,-0.029785 -0.080566,-0.084473 -0.029297,-0.054687 -0.029297,-0.1127929 0,-0.058594 0.029297,-0.112793 0.029785,-0.054687 0.080566,-0.084473 0.05127,-0.029785 0.1074219,-0.029785 0.1074218,0 0.180664,0.097656 V 3.0402343 h -0.054687 q -0.015137,0 -0.021484,-0.00586 -0.00635,-0.00586 -0.00635,-0.015137 0,-0.00879 0.00635,-0.014648 0.00635,-0.00586 0.021484,-0.00586 z M 7.652832,3.4010742 q 0,-0.078125 -0.052734,-0.131836 -0.052734,-0.053711 -0.1254883,-0.053711 -0.073242,0 -0.1259766,0.053711 -0.052734,0.053711 -0.052734,0.131836 0,0.077637 0.052734,0.1318359 0.052734,0.053711 0.1259766,0.053711 0.072754,0 0.1254883,-0.053711 0.052734,-0.054199 0.052734,-0.1318359 z m 0.6625977,0.00879 H 7.8974609 q 0.010742,0.07959 0.066406,0.128418 0.056152,0.04834 0.1386719,0.04834 0.045898,0 0.096191,-0.015137 0.050293,-0.015137 0.082031,-0.040039 0.00928,-0.00732 0.016113,-0.00732 0.00781,0 0.013672,0.00635 0.00586,0.00586 0.00586,0.01416 0,0.0083 -0.00781,0.016113 -0.023437,0.024414 -0.083496,0.045898 -0.05957,0.020996 -0.1225586,0.020996 -0.1054688,0 -0.1762696,-0.068848 -0.070312,-0.069336 -0.070312,-0.1674805 0,-0.089355 0.065918,-0.1533203 0.066406,-0.063965 0.1640625,-0.063965 0.1005859,0 0.1655273,0.065918 0.064941,0.06543 0.063965,0.1699218 z m -0.041504,-0.041504 q -0.012207,-0.067871 -0.064453,-0.1103515 -0.051758,-0.04248 -0.1235352,-0.04248 -0.071777,0 -0.1235352,0.041992 -0.051758,0.041992 -0.064453,0.1108398 z m 0.5551758,-0.152832 q 0,-0.01416 0.00586,-0.020508 0.00586,-0.00635 0.014648,-0.00635 0.00928,0 0.015137,0.00635 0.00586,0.00635 0.00586,0.021484 v 0.070312 q 0,0.014648 -0.00586,0.020996 -0.00586,0.00635 -0.015137,0.00635 -0.0083,0 -0.01416,-0.00537 -0.00537,-0.00537 -0.00635,-0.017578 -0.00293,-0.029297 -0.030273,-0.04834 -0.040039,-0.027344 -0.105957,-0.027344 -0.068848,0 -0.1069336,0.027832 -0.028809,0.020996 -0.028809,0.046875 0,0.029297 0.03418,0.048828 0.023437,0.013672 0.088867,0.020996 0.085449,0.00928 0.1186523,0.020996 0.047363,0.01709 0.070312,0.047363 0.023437,0.030274 0.023437,0.06543 0,0.052246 -0.050293,0.093262 -0.050293,0.040527 -0.147461,0.040527 -0.097168,0 -0.1591797,-0.049316 0,0.016601 -0.00195,0.021484 -0.00195,0.00488 -0.00732,0.0083 -0.00488,0.00342 -0.01123,0.00342 -0.00879,0 -0.014648,-0.00635 -0.00586,-0.00635 -0.00586,-0.020996 V 3.499707 q 0,-0.014648 0.00537,-0.020996 0.00586,-0.00635 0.015137,-0.00635 0.00879,0 0.014648,0.00635 0.00635,0.00586 0.00635,0.016113 0,0.022461 0.01123,0.037598 0.01709,0.023437 0.054199,0.039063 0.037598,0.015137 0.091797,0.015137 0.080078,0 0.1191406,-0.029785 0.039063,-0.029785 0.039063,-0.062988 0,-0.038086 -0.039551,-0.061035 -0.040039,-0.022949 -0.1166992,-0.030762 -0.076172,-0.00781 -0.109375,-0.020508 -0.033203,-0.012695 -0.051758,-0.038086 -0.018555,-0.025391 -0.018555,-0.054687 0,-0.052734 0.051758,-0.083496 0.051758,-0.03125 0.1235352,-0.03125 0.084961,0 0.1381836,0.041504 z M 9.3139648,2.9782226 v 0.105957 H 9.253418 v -0.105957 z m 0.00146,0.2104492 v 0.381836 h 0.1611328 q 0.015137,0 0.021484,0.00586 0.00635,0.00537 0.00635,0.014648 0,0.00879 -0.00635,0.014648 -0.00635,0.00586 -0.021484,0.00586 H 9.1132813 q -0.014648,0 -0.020996,-0.00586 -0.00635,-0.00586 -0.00635,-0.014648 0,-0.00928 0.00635,-0.014648 0.00635,-0.00586 0.020996,-0.00586 H 9.2744141 V 3.2301757 H 9.1547852 q -0.014648,0 -0.021484,-0.00586 -0.00635,-0.00586 -0.00635,-0.014649 0,-0.00928 0.00635,-0.015137 0.00635,-0.00586 0.021484,-0.00586 z m 0.7163083,0.075195 v -0.075195 h 0.09619 q 0.01465,0 0.021,0.00586 0.0063,0.00586 0.0063,0.015137 0,0.00879 -0.0063,0.014649 -0.0063,0.00586 -0.021,0.00586 h -0.05518 v 0.409668 q 0,0.041016 -0.01758,0.073242 -0.01172,0.021484 -0.03906,0.044434 -0.027344,0.022949 -0.049804,0.032715 Q 9.9438477,3.8 9.90625,3.8 H 9.7900391 q -0.014648,0 -0.020996,-0.00586 -0.00635,-0.00537 -0.00635,-0.014648 0,-0.00928 0.00635,-0.015137 0.00635,-0.00586 0.020996,-0.00586 l 0.1176757,4.883e-4 q 0.036133,0 0.064941,-0.018555 0.029297,-0.018555 0.04834,-0.054199 0.01074,-0.020508 0.01074,-0.052246 V 3.5109375 q -0.065918,0.090332 -0.1699216,0.090332 -0.084473,0 -0.1459961,-0.0625 -0.061035,-0.062988 -0.061035,-0.1513672 0,-0.088379 0.061035,-0.1508789 0.061523,-0.0625 0.1459961,-0.0625 0.1040039,0 0.1699216,0.089844 z m 0,0.1235352 q 0,-0.072266 -0.049804,-0.1220703 -0.049316,-0.049805 -0.1181641,-0.049805 -0.068848,0 -0.118164,0.050293 -0.049316,0.049805 -0.049316,0.121582 0,0.072266 0.049316,0.1225586 0.049316,0.049805 0.118164,0.049805 0.068848,0 0.1181641,-0.049805 0.049804,-0.050293 0.049804,-0.1225586 z m 0.32959,-0.1987305 v 0.062012 q 0.04297,-0.043457 0.07764,-0.060059 0.03467,-0.016602 0.07813,-0.016602 0.04687,0 0.08545,0.02002 0.02734,0.014649 0.04932,0.048828 0.02246,0.033691 0.02246,0.069336 v 0.2583008 h 0.03467 q 0.01465,0 0.021,0.00586 0.0063,0.00537 0.0063,0.014648 0,0.00879 -0.0063,0.014648 -0.0063,0.00586 -0.021,0.00586 h -0.109863 q -0.01514,0 -0.02148,-0.00586 -0.0063,-0.00586 -0.0063,-0.014648 0,-0.00928 0.0063,-0.014648 0.0063,-0.00586 0.02148,-0.00586 h 0.03418 V 3.3190429 q 0,-0.043457 -0.03174,-0.073242 -0.03174,-0.030273 -0.08496,-0.030273 -0.04053,0 -0.07031,0.016602 -0.02979,0.016113 -0.08496,0.081055 v 0.2573243 h 0.04639 q 0.01465,0 0.021,0.00586 0.0063,0.00537 0.0063,0.014648 0,0.00879 -0.0063,0.014648 -0.0063,0.00586 -0.021,0.00586 h -0.133789 q -0.01465,0 -0.021,-0.00586 -0.0063,-0.00586 -0.0063,-0.014648 0,-0.00928 0.0063,-0.014648 0.0063,-0.00586 0.021,-0.00586 h 0.04639 V 3.2301757 h -0.03467 q -0.01465,0 -0.021,-0.00586 -0.0063,-0.00586 -0.0063,-0.015137 0,-0.00879 0.0063,-0.014648 0.0063,-0.00586 0.021,-0.00586 z m 1.283692,0 v 0.1035157 q 0.08008,-0.072266 0.119628,-0.092773 0.04004,-0.020996 0.07373,-0.020996 0.03662,0 0.06787,0.024902 0.03174,0.024414 0.03174,0.037109 0,0.00928 -0.0063,0.015625 -0.0059,0.00586 -0.01514,0.00586 -0.0049,0 -0.0083,-0.00146 -0.0034,-0.00195 -0.0127,-0.01123 -0.01709,-0.01709 -0.02979,-0.023437 -0.0127,-0.00635 -0.0249,-0.00635 -0.02686,0 -0.06494,0.021484 -0.0376,0.021484 -0.130859,0.1049805 v 0.2246094 h 0.18164 q 0.01514,0 0.02149,0.00586 0.0063,0.00537 0.0063,0.014648 0,0.00879 -0.0063,0.014648 -0.0063,0.00586 -0.02149,0.00586 h -0.321777 q -0.01465,0 -0.021,-0.00537 -0.0063,-0.00586 -0.0063,-0.014648 0,-0.0083 0.0059,-0.013672 0.0063,-0.00586 0.02149,-0.00586 h 0.09912 V 3.2301757 h -0.07568 q -0.01465,0 -0.021,-0.00586 -0.0063,-0.00586 -0.0063,-0.015137 0,-0.00879 0.0059,-0.014648 0.0063,-0.00586 0.02148,-0.00586 z m 0.871093,0.2211914 h -0.417968 q 0.01074,0.07959 0.06641,0.128418 0.05615,0.04834 0.138672,0.04834 0.0459,0 0.09619,-0.015137 0.05029,-0.015137 0.08203,-0.040039 0.0093,-0.00732 0.01611,-0.00732 0.0078,0 0.01367,0.00635 0.0059,0.00586 0.0059,0.01416 0,0.0083 -0.0078,0.016113 -0.02344,0.024414 -0.0835,0.045898 -0.05957,0.020996 -0.122558,0.020996 -0.105469,0 -0.17627,-0.068848 -0.07031,-0.069336 -0.07031,-0.1674805 0,-0.089355 0.06592,-0.1533203 0.06641,-0.063965 0.164062,-0.063965 0.100586,0 0.165527,0.065918 0.06494,0.06543 0.06397,0.1699218 z m -0.0415,-0.041504 q -0.01221,-0.067871 -0.06445,-0.1103515 -0.05176,-0.04248 -0.123535,-0.04248 -0.07178,0 -0.123535,0.041992 -0.05176,0.041992 -0.06445,0.1108398 z M 12.70752,3.1886718 v 0.041504 q 0.05225,-0.056152 0.10498,-0.056152 0.03174,0 0.05566,0.01709 0.02393,0.016602 0.04004,0.050781 0.02734,-0.03418 0.05518,-0.050781 0.02832,-0.01709 0.05664,-0.01709 0.04443,0 0.0708,0.028809 0.03467,0.037109 0.03467,0.081055 v 0.2866211 h 0.03467 q 0.01465,0 0.021,0.00586 0.0063,0.00537 0.0063,0.014648 0,0.00879 -0.0063,0.014648 -0.0063,0.00586 -0.021,0.00586 h -0.07568 V 3.2877929 q 0,-0.03125 -0.01904,-0.051758 -0.01904,-0.020508 -0.04395,-0.020508 -0.02246,0 -0.04736,0.01709 -0.0249,0.016602 -0.05664,0.065918 v 0.2719727 h 0.03418 q 0.01465,0 0.021,0.00586 0.0063,0.00537 0.0063,0.014648 0,0.00879 -0.0063,0.014648 -0.0063,0.00586 -0.021,0.00586 h -0.07568 V 3.2907226 q 0,-0.032715 -0.01953,-0.053711 -0.01904,-0.021484 -0.04297,-0.021484 -0.02197,0 -0.04346,0.01416 -0.02979,0.02002 -0.0625,0.068848 v 0.2719727 h 0.03467 q 0.01465,0 0.021,0.00586 0.0063,0.00537 0.0063,0.014648 0,0.00879 -0.0063,0.014648 -0.0063,0.00586 -0.021,0.00586 h -0.110352 q -0.01465,0 -0.021,-0.00586 -0.0063,-0.00586 -0.0063,-0.014648 0,-0.00928 0.0063,-0.014648 0.0063,-0.00586 0.021,-0.00586 h 0.03467 V 3.2301757 h -0.03467 q -0.01465,0 -0.021,-0.00586 -0.0063,-0.00586 -0.0063,-0.015137 0,-0.00879 0.0063,-0.014648 0.0063,-0.00586 0.021,-0.00586 z m 0.904785,0.4228516 v -0.059082 q -0.08936,0.075195 -0.190918,0.075195 -0.07373,0 -0.115235,-0.037109 -0.0415,-0.037598 -0.0415,-0.091797 0,-0.05957 0.05469,-0.1040039 0.05469,-0.044434 0.159668,-0.044434 0.02832,0 0.06152,0.00391 0.0332,0.00342 0.07178,0.01123 v -0.066406 q 0,-0.033691 -0.03125,-0.058594 -0.03125,-0.024902 -0.09375,-0.024902 -0.04785,0 -0.134278,0.027832 -0.01563,0.00488 -0.02002,0.00488 -0.0078,0 -0.01367,-0.00586 -0.0054,-0.00586 -0.0054,-0.014649 0,-0.0083 0.0049,-0.013184 0.0068,-0.00732 0.05518,-0.02002 0.07617,-0.020508 0.115235,-0.020508 0.07764,0 0.121094,0.038574 0.04346,0.038086 0.04346,0.086426 v 0.2714844 h 0.05469 q 0.01514,0 0.02148,0.00586 0.0063,0.00537 0.0063,0.014648 0,0.00879 -0.0063,0.014648 -0.0063,0.00586 -0.02148,0.00586 z m 0,-0.2041016 q -0.02881,-0.0083 -0.06103,-0.012207 -0.03223,-0.00391 -0.06787,-0.00391 -0.08935,0 -0.139648,0.038574 -0.03809,0.028809 -0.03809,0.068848 0,0.037109 0.02881,0.0625 0.0293,0.025391 0.08496,0.025391 0.05322,0 0.09863,-0.020996 0.0459,-0.021484 0.09424,-0.067871 z m 0.398925,0.021484 v 0.1826172 h -0.09619 q -0.01465,0 -0.021,-0.00586 -0.0063,-0.00586 -0.0063,-0.014648 0,-0.00928 0.0063,-0.014648 0.0063,-0.00586 0.021,-0.00586 h 0.05518 V 3.0402343 h -0.05518 q -0.01465,0 -0.021,-0.00586 -0.0063,-0.00586 -0.0063,-0.015137 0,-0.00879 0.0063,-0.014648 0.0063,-0.00586 0.021,-0.00586 h 0.09619 v 0.3779297 l 0.174317,-0.1464844 h -0.021 q -0.01465,0 -0.021,-0.00586 -0.0063,-0.00586 -0.0063,-0.014649 0,-0.00928 0.0063,-0.015137 0.0063,-0.00586 0.021,-0.00586 h 0.131347 q 0.01514,0 0.02149,0.00586 0.0063,0.00586 0.0063,0.015137 0,0.00879 -0.0063,0.014649 -0.0063,0.00586 -0.02149,0.00586 h -0.04736 l -0.160156,0.1337891 0.202637,0.206543 h 0.04736 q 0.01514,0 0.02148,0.00586 0.0063,0.00537 0.0063,0.014648 0,0.00879 -0.0063,0.014648 -0.0063,0.00586 -0.02148,0.00586 h -0.132813 q -0.01465,0 -0.021,-0.00586 -0.0063,-0.00586 -0.0063,-0.014648 0,-0.00928 0.0063,-0.014648 0.0063,-0.00586 0.021,-0.00586 h 0.02881 l -0.17627,-0.1811524 z m 0.905274,-0.019043 h -0.417969 q 0.01074,0.07959 0.06641,0.128418 0.05615,0.04834 0.138672,0.04834 0.0459,0 0.09619,-0.015137 0.05029,-0.015137 0.08203,-0.040039 0.0093,-0.00732 0.01611,-0.00732 0.0078,0 0.01367,0.00635 0.0059,0.00586 0.0059,0.01416 0,0.0083 -0.0078,0.016113 -0.02344,0.024414 -0.0835,0.045898 -0.05957,0.020996 -0.122559,0.020996 -0.105468,0 -0.176269,-0.068848 -0.07031,-0.069336 -0.07031,-0.1674805 0,-0.089355 0.06592,-0.1533203 0.06641,-0.063965 0.164063,-0.063965 0.100586,0 0.165527,0.065918 0.06494,0.06543 0.06396,0.1699218 z M 14.875,3.3683593 q -0.01221,-0.067871 -0.06445,-0.1103515 -0.05176,-0.04248 -0.123535,-0.04248 -0.07178,0 -0.123535,0.041992 -0.05176,0.041992 -0.06445,0.1108398 z m 0.865234,-0.3696289 v 0.2719727 q 0.07422,-0.09668 0.1792,-0.09668 0.08984,0 0.153808,0.06543 0.06396,0.064941 0.06396,0.1596679 0,0.095703 -0.06494,0.1621094 -0.06445,0.066406 -0.152832,0.066406 -0.107422,0 -0.1792,-0.09668 v 0.080566 h -0.09619 q -0.01465,0 -0.021,-0.00586 -0.0063,-0.00586 -0.0063,-0.014648 0,-0.00928 0.0063,-0.014648 0.0063,-0.00586 0.021,-0.00586 h 0.05518 V 3.0402343 h -0.05518 q -0.01465,0 -0.021,-0.00586 -0.0063,-0.00586 -0.0063,-0.015137 0,-0.00879 0.0063,-0.014648 0.0063,-0.00586 0.021,-0.00586 z m 0.355957,0.4023438 q 0,-0.077637 -0.05322,-0.1313477 -0.05322,-0.054199 -0.124512,-0.054199 -0.07129,0 -0.124512,0.054199 -0.05322,0.053711 -0.05322,0.1313477 0,0.077637 0.05322,0.1318359 0.05322,0.053711 0.124512,0.053711 0.07129,0 0.124512,-0.053711 0.05322,-0.054199 0.05322,-0.1318359 z m 0.401368,0.2104492 -0.19043,-0.3813477 h -0.01221 q -0.01465,0 -0.021,-0.00586 -0.0063,-0.00586 -0.0063,-0.014649 0,-0.00635 0.0029,-0.01123 0.0034,-0.00537 0.0083,-0.00732 0.0054,-0.00244 0.01611,-0.00244 h 0.112305 q 0.01465,0 0.021,0.00586 0.0063,0.00586 0.0063,0.015137 0,0.00879 -0.0063,0.014649 -0.0063,0.00586 -0.021,0.00586 h -0.05518 l 0.16748,0.3364258 0.165039,-0.3364258 h -0.05518 q -0.01465,0 -0.021,-0.00586 -0.0063,-0.00586 -0.0063,-0.015137 0,-0.00879 0.0063,-0.014648 0.0063,-0.00586 0.021,-0.00586 h 0.111816 q 0.01514,0 0.02148,0.00586 0.0063,0.00586 0.0063,0.015137 0,0.00635 -0.0039,0.011719 -0.0039,0.00537 -0.0088,0.00732 -0.0049,0.00146 -0.02734,0.00146 l -0.259766,0.5288086 h 0.06396 q 0.01465,0 0.021,0.00537 0.0063,0.00586 0.0063,0.015137 0,0.00879 -0.0063,0.014648 Q 16.547852,3.8 16.533203,3.8 h -0.236328 q -0.01465,0 -0.021,-0.00586 -0.0063,-0.00537 -0.0063,-0.014648 0,-0.00928 0.0063,-0.015137 0.0063,-0.00537 0.021,-0.00537 h 0.128418 z m 1.224609,-0.1713867 h -0.04687 L 17.517578,3.08125 h -0.0078 v 0.4892578 h 0.07568 q 0.01465,0 0.021,0.00586 0.0063,0.00537 0.0063,0.014648 0,0.00879 -0.0063,0.014648 -0.0063,0.00586 -0.021,0.00586 h -0.151367 q -0.01465,0 -0.021,-0.00586 -0.0063,-0.00586 -0.0063,-0.014648 0,-0.00928 0.0063,-0.014648 0.0063,-0.00586 0.021,-0.00586 h 0.03467 V 3.08125 h -0.02588 q -0.01465,0 -0.021,-0.00537 -0.0063,-0.00586 -0.0063,-0.015137 0,-0.00928 0.0063,-0.014648 0.0063,-0.00586 0.021,-0.00586 h 0.100586 L 17.69873,3.39375 17.851562,3.0402343 h 0.100586 q 0.01514,0 0.02148,0.00586 0.0063,0.00537 0.0063,0.014648 0,0.00928 -0.0063,0.015137 -0.0063,0.00537 -0.02148,0.00537 h -0.02539 v 0.4892578 h 0.03418 q 0.01514,0 0.02148,0.00586 0.0063,0.00537 0.0063,0.014648 0,0.00879 -0.0063,0.014648 -0.0063,0.00586 -0.02148,0.00586 h -0.150878 q -0.01465,0 -0.02148,-0.00586 -0.0063,-0.00586 -0.0063,-0.014648 0,-0.00928 0.0063,-0.014648 0.0063,-0.00586 0.02148,-0.00586 h 0.07568 V 3.08125 h -0.0088 z m 0.794922,-0.030273 h -0.417969 q 0.01074,0.07959 0.06641,0.128418 0.05615,0.04834 0.138672,0.04834 0.0459,0 0.09619,-0.015137 0.05029,-0.015137 0.08203,-0.040039 0.0093,-0.00732 0.01611,-0.00732 0.0078,0 0.01367,0.00635 0.0059,0.00586 0.0059,0.01416 0,0.0083 -0.0078,0.016113 -0.02344,0.024414 -0.0835,0.045898 -0.05957,0.020996 -0.122559,0.020996 -0.105469,0 -0.176269,-0.068848 -0.07031,-0.069336 -0.07031,-0.1674805 0,-0.089355 0.06592,-0.1533203 0.06641,-0.063965 0.164063,-0.063965 0.100586,0 0.165527,0.065918 0.06494,0.06543 0.06396,0.1699218 z m -0.0415,-0.041504 q -0.01221,-0.067871 -0.06445,-0.1103515 -0.05176,-0.04248 -0.123535,-0.04248 -0.07178,0 -0.123536,0.041992 -0.05176,0.041992 -0.06445,0.1108398 z m 0.335449,-0.1796875 h 0.222656 q 0.01465,0 0.021,0.00586 0.0063,0.00586 0.0063,0.015137 0,0.00879 -0.0063,0.014649 -0.0063,0.00586 -0.021,0.00586 H 18.811035 V 3.503125 q 0,0.035645 0.02832,0.05957 0.02881,0.023926 0.08398,0.023926 0.0415,0 0.08984,-0.012207 0.04834,-0.012695 0.0752,-0.02832 0.0098,-0.00635 0.01611,-0.00635 0.0078,0 0.01367,0.00635 0.0059,0.00586 0.0059,0.01416 0,0.00732 -0.0063,0.013672 -0.01563,0.016113 -0.07617,0.035156 -0.06006,0.018555 -0.115234,0.018555 -0.07178,0 -0.114258,-0.033691 -0.04248,-0.033691 -0.04248,-0.09082 V 3.2301757 h -0.07568 q -0.01465,0 -0.021,-0.00586 -0.0063,-0.00586 -0.0063,-0.015137 0,-0.00879 0.0063,-0.014648 0.0063,-0.00586 0.021,-0.00586 h 0.07568 V 3.0675781 q 0,-0.014648 0.0059,-0.020996 0.0059,-0.00635 0.01465,-0.00635 0.0093,0 0.01514,0.00635 0.0059,0.00635 0.0059,0.020996 z m 0.913574,0.2124024 q 0,0.09375 -0.06738,0.1601562 -0.06689,0.066406 -0.161622,0.066406 -0.0957,0 -0.162597,-0.066406 -0.06689,-0.066895 -0.06689,-0.1601562 0,-0.09375 0.06689,-0.1601563 0.06689,-0.066895 0.162597,-0.066895 0.09473,0 0.161622,0.066406 0.06738,0.066406 0.06738,0.1606446 z m -0.0415,0 q 0,-0.077148 -0.05518,-0.1313477 -0.05469,-0.054199 -0.132813,-0.054199 -0.07813,0 -0.133301,0.054687 -0.05469,0.054199 -0.05469,0.1308594 0,0.076172 0.05469,0.1308593 0.05518,0.054687 0.133301,0.054687 0.07813,0 0.132813,-0.054199 0.05518,-0.054687 0.05518,-0.1313476 z m 0.279786,-0.2124024 v 0.062012 q 0.04297,-0.043457 0.07764,-0.060059 0.03467,-0.016602 0.07813,-0.016602 0.04687,0 0.08545,0.02002 0.02734,0.014649 0.04932,0.048828 0.02246,0.033691 0.02246,0.069336 v 0.2583008 h 0.03467 q 0.01465,0 0.021,0.00586 0.0063,0.00537 0.0063,0.014648 0,0.00879 -0.0063,0.014648 -0.0063,0.00586 -0.021,0.00586 h -0.109863 q -0.01514,0 -0.02148,-0.00586 -0.0063,-0.00586 -0.0063,-0.014648 0,-0.00928 0.0063,-0.014648 0.0063,-0.00586 0.02148,-0.00586 h 0.03418 V 3.3190429 q 0,-0.043457 -0.03174,-0.073242 -0.03174,-0.030273 -0.08496,-0.030273 -0.04053,0 -0.07031,0.016602 -0.02979,0.016113 -0.08496,0.081055 v 0.2573243 h 0.04639 q 0.01465,0 0.021,0.00586 0.0063,0.00537 0.0063,0.014648 0,0.00879 -0.0063,0.014648 -0.0063,0.00586 -0.021,0.00586 h -0.133789 q -0.01465,0 -0.021,-0.00586 -0.0063,-0.00586 -0.0063,-0.014648 0,-0.00928 0.0063,-0.014648 0.0063,-0.00586 0.021,-0.00586 h 0.04639 V 3.2301757 h -0.03467 q -0.01465,0 -0.021,-0.00586 -0.0063,-0.00586 -0.0063,-0.015137 0,-0.00879 0.0063,-0.014648 0.0063,-0.00586 0.021,-0.00586 z M 20.71582,2.9782226 v 0.105957 h -0.06055 v -0.105957 z m 0.0015,0.2104492 v 0.381836 h 0.161133 q 0.01514,0 0.02148,0.00586 0.0063,0.00537 0.0063,0.014648 0,0.00879 -0.0063,0.014648 -0.0063,0.00586 -0.02148,0.00586 h -0.363281 q -0.01465,0 -0.021,-0.00586 -0.0063,-0.00586 -0.0063,-0.014648 0,-0.00928 0.0063,-0.014648 0.0063,-0.00586 0.021,-0.00586 H 20.67627 V 3.2301757 h -0.119629 q -0.01465,0 -0.02148,-0.00586 -0.0063,-0.00586 -0.0063,-0.014649 0,-0.00928 0.0063,-0.015137 0.0063,-0.00586 0.02148,-0.00586 z m 0.749512,0.041504 v -0.013672 q 0,-0.015137 0.0059,-0.021484 0.0059,-0.00635 0.01465,-0.00635 0.0093,0 0.01514,0.00635 0.0059,0.00635 0.0059,0.021484 v 0.092773 q -4.89e-4,0.015137 -0.0063,0.021484 -0.0054,0.00635 -0.01465,0.00635 -0.0083,0 -0.01416,-0.00537 -0.0054,-0.00586 -0.0063,-0.019043 -0.0029,-0.034668 -0.0459,-0.065918 -0.04248,-0.03125 -0.114746,-0.03125 -0.09131,0 -0.138672,0.057129 -0.04736,0.057129 -0.04736,0.1308594 0,0.07959 0.05225,0.1313476 0.05225,0.051758 0.135254,0.051758 0.04785,0 0.09717,-0.017578 0.0498,-0.017578 0.08984,-0.056641 0.01025,-0.00977 0.01807,-0.00977 0.0083,0 0.01367,0.00586 0.0059,0.00537 0.0059,0.013672 0,0.020996 -0.04932,0.053223 -0.07959,0.052246 -0.177246,0.052246 -0.09912,0 -0.163086,-0.062988 -0.06348,-0.063477 -0.06348,-0.1606445 0,-0.099121 0.06494,-0.1645508 0.06543,-0.06543 0.164551,-0.06543 0.09424,0 0.158203,0.056152 z m 0.895508,0.1054688 v 0.2348633 h 0.315429 V 3.449414 q 0,-0.014648 0.0054,-0.020996 0.0059,-0.00635 0.01514,-0.00635 0.0093,0 0.01465,0.00635 0.0059,0.00635 0.0059,0.020996 v 0.1621094 h -0.452637 q -0.01465,0 -0.021,-0.00586 -0.0063,-0.00586 -0.0063,-0.014648 0,-0.00928 0.0063,-0.014648 0.0063,-0.00586 0.021,-0.00586 h 0.05518 V 3.08125 h -0.05518 q -0.01465,0 -0.021,-0.00537 -0.0063,-0.00586 -0.0063,-0.015137 0,-0.00928 0.0063,-0.014648 0.0063,-0.00586 0.021,-0.00586 h 0.431153 v 0.1411133 q 0,0.014648 -0.0059,0.020996 -0.0054,0.00635 -0.01465,0.00635 -0.0093,0 -0.01514,-0.00635 -0.0054,-0.00635 -0.0054,-0.020996 V 3.08125 h -0.293945 v 0.2133789 h 0.146972 v -0.046387 q 0,-0.014648 0.0059,-0.020996 0.0059,-0.00635 0.01514,-0.00635 0.0088,0 0.01465,0.00635 0.0059,0.00635 0.0059,0.020996 v 0.1337891 q 0,0.014648 -0.0059,0.020996 -0.0059,0.00635 -0.01465,0.00635 -0.0093,0 -0.01514,-0.00635 -0.0059,-0.00635 -0.0059,-0.020996 v -0.046387 z m 0.601074,-0.1469727 v 0.062012 q 0.04297,-0.043457 0.07764,-0.060059 0.03467,-0.016602 0.07813,-0.016602 0.04687,0 0.08545,0.02002 0.02734,0.014649 0.04932,0.048828 0.02246,0.033691 0.02246,0.069336 v 0.2583008 h 0.03467 q 0.01465,0 0.021,0.00586 0.0063,0.00537 0.0063,0.014648 0,0.00879 -0.0063,0.014648 -0.0063,0.00586 -0.021,0.00586 h -0.109863 q -0.01514,0 -0.02148,-0.00586 -0.0063,-0.00586 -0.0063,-0.014648 0,-0.00928 0.0063,-0.014648 0.0063,-0.00586 0.02148,-0.00586 h 0.03418 V 3.3190429 q 0,-0.043457 -0.03174,-0.073242 -0.03174,-0.030273 -0.08496,-0.030273 -0.04053,0 -0.07031,0.016602 -0.02979,0.016113 -0.08496,0.081055 v 0.2573243 h 0.04639 q 0.01465,0 0.021,0.00586 0.0063,0.00537 0.0063,0.014648 0,0.00879 -0.0063,0.014648 -0.0063,0.00586 -0.021,0.00586 h -0.133789 q -0.01465,0 -0.021,-0.00586 -0.0063,-0.00586 -0.0063,-0.014648 0,-0.00928 0.0063,-0.014648 0.0063,-0.00586 0.021,-0.00586 h 0.04639 V 3.2301757 h -0.03467 q -0.01465,0 -0.021,-0.00586 -0.0063,-0.00586 -0.0063,-0.015137 0,-0.00879 0.0063,-0.014648 0.0063,-0.00586 0.021,-0.00586 z m 0.870605,0.075195 v -0.075195 h 0.09619 q 0.01465,0 0.021,0.00586 0.0063,0.00586 0.0063,0.015137 0,0.00879 -0.0063,0.014649 -0.0063,0.00586 -0.021,0.00586 H 23.875 v 0.409668 q 0,0.041016 -0.01758,0.073242 -0.01172,0.021484 -0.03906,0.044434 -0.02734,0.022949 -0.0498,0.032715 Q 23.746094,3.8 23.708496,3.8 h -0.116211 q -0.01465,0 -0.021,-0.00586 -0.0063,-0.00537 -0.0063,-0.014648 0,-0.00928 0.0063,-0.015137 0.0063,-0.00586 0.021,-0.00586 l 0.117676,4.883e-4 q 0.03613,0 0.06494,-0.018555 0.0293,-0.018555 0.04834,-0.054199 0.01074,-0.020508 0.01074,-0.052246 V 3.5109375 q -0.06592,0.090332 -0.169922,0.090332 -0.08447,0 -0.145996,-0.0625 -0.06104,-0.062988 -0.06104,-0.1513672 0,-0.088379 0.06104,-0.1508789 0.06152,-0.0625 0.145996,-0.0625 0.104004,0 0.169922,0.089844 z m 0,0.1235352 q 0,-0.072266 -0.0498,-0.1220703 -0.04932,-0.049805 -0.118164,-0.049805 -0.06885,0 -0.118164,0.050293 -0.04932,0.049805 -0.04932,0.121582 0,0.072266 0.04932,0.1225586 0.04932,0.049805 0.118164,0.049805 0.06885,0 0.118164,-0.049805 0.0498,-0.050293 0.0498,-0.1225586 z m 0.482422,-0.4091797 v 0.105957 h -0.06055 v -0.105957 z m 0.0015,0.2104492 v 0.381836 h 0.161133 q 0.01514,0 0.02148,0.00586 0.0063,0.00537 0.0063,0.014648 0,0.00879 -0.0063,0.014648 -0.0063,0.00586 -0.02148,0.00586 h -0.363281 q -0.01465,0 -0.021,-0.00586 -0.0063,-0.00586 -0.0063,-0.014648 0,-0.00928 0.0063,-0.014648 0.0063,-0.00586 0.021,-0.00586 h 0.161132 V 3.2301757 h -0.119628 q -0.01465,0 -0.02148,-0.00586 -0.0063,-0.00586 -0.0063,-0.014649 0,-0.00928 0.0063,-0.015137 0.0063,-0.00586 0.02148,-0.00586 z m 0.445801,0 v 0.062012 q 0.04297,-0.043457 0.07764,-0.060059 0.03467,-0.016602 0.07813,-0.016602 0.04687,0 0.08545,0.02002 0.02734,0.014649 0.04932,0.048828 0.02246,0.033691 0.02246,0.069336 v 0.2583008 h 0.03467 q 0.01465,0 0.021,0.00586 0.0063,0.00537 0.0063,0.014648 0,0.00879 -0.0063,0.014648 -0.0063,0.00586 -0.021,0.00586 h -0.109863 q -0.01514,0 -0.02148,-0.00586 -0.0063,-0.00586 -0.0063,-0.014648 0,-0.00928 0.0063,-0.014648 0.0063,-0.00586 0.02148,-0.00586 h 0.03418 V 3.3190429 q 0,-0.043457 -0.03174,-0.073242 -0.03174,-0.030273 -0.08496,-0.030273 -0.04053,0 -0.07031,0.016602 -0.02979,0.016113 -0.08496,0.081055 v 0.2573243 h 0.04639 q 0.01465,0 0.021,0.00586 0.0063,0.00537 0.0063,0.014648 0,0.00879 -0.0063,0.014648 -0.0063,0.00586 -0.021,0.00586 H 24.67627 q -0.01465,0 -0.021,-0.00586 -0.0063,-0.00586 -0.0063,-0.014648 0,-0.00928 0.0063,-0.014648 0.0063,-0.00586 0.021,-0.00586 h 0.04639 V 3.2301757 h -0.03467 q -0.01465,0 -0.021,-0.00586 -0.0063,-0.00586 -0.0063,-0.015137 0,-0.00879 0.0063,-0.014648 0.0063,-0.00586 0.021,-0.00586 z m 0.95459,0.2211914 h -0.417969 q 0.01074,0.07959 0.06641,0.128418 0.05615,0.04834 0.138672,0.04834 0.0459,0 0.09619,-0.015137 0.05029,-0.015137 0.08203,-0.040039 0.0093,-0.00732 0.01611,-0.00732 0.0078,0 0.01367,0.00635 0.0059,0.00586 0.0059,0.01416 0,0.0083 -0.0078,0.016113 -0.02344,0.024414 -0.0835,0.045898 -0.05957,0.020996 -0.122559,0.020996 -0.105469,0 -0.176269,-0.068848 -0.07031,-0.069336 -0.07031,-0.1674805 0,-0.089355 0.06592,-0.1533203 0.06641,-0.063965 0.164063,-0.063965 0.100585,0 0.165527,0.065918 0.06494,0.06543 0.06396,0.1699218 z m -0.0415,-0.041504 q -0.01221,-0.067871 -0.06445,-0.1103515 -0.05176,-0.04248 -0.123535,-0.04248 -0.07178,0 -0.123536,0.041992 -0.05176,0.041992 -0.06445,0.1108398 z m 0.641601,0.041504 h -0.417968 q 0.01074,0.07959 0.06641,0.128418 0.05615,0.04834 0.138672,0.04834 0.0459,0 0.09619,-0.015137 0.05029,-0.015137 0.08203,-0.040039 0.0093,-0.00732 0.01611,-0.00732 0.0078,0 0.01367,0.00635 0.0059,0.00586 0.0059,0.01416 0,0.0083 -0.0078,0.016113 -0.02344,0.024414 -0.0835,0.045898 -0.05957,0.020996 -0.122558,0.020996 -0.105469,0 -0.17627,-0.068848 -0.07031,-0.069336 -0.07031,-0.1674805 0,-0.089355 0.06592,-0.1533203 0.06641,-0.063965 0.164062,-0.063965 0.100586,0 0.165528,0.065918 0.06494,0.06543 0.06396,0.1699218 z m -0.0415,-0.041504 q -0.01221,-0.067871 -0.06445,-0.1103515 -0.05176,-0.04248 -0.123535,-0.04248 -0.07178,0 -0.123535,0.041992 -0.05176,0.041992 -0.06445,0.1108398 z m 0.370606,-0.1796875 v 0.1035157 q 0.08008,-0.072266 0.119629,-0.092773 0.04004,-0.020996 0.07373,-0.020996 0.03662,0 0.06787,0.024902 0.03174,0.024414 0.03174,0.037109 0,0.00928 -0.0063,0.015625 -0.0059,0.00586 -0.01514,0.00586 -0.0049,0 -0.0083,-0.00146 -0.0034,-0.00195 -0.0127,-0.01123 -0.01709,-0.01709 -0.02979,-0.023437 -0.0127,-0.00635 -0.0249,-0.00635 -0.02686,0 -0.06494,0.021484 -0.0376,0.021484 -0.130859,0.1049805 v 0.2246094 h 0.181641 q 0.01514,0 0.02148,0.00586 0.0063,0.00537 0.0063,0.014648 0,0.00879 -0.0063,0.014648 -0.0063,0.00586 -0.02148,0.00586 h -0.321778 q -0.01465,0 -0.021,-0.00537 -0.0063,-0.00586 -0.0063,-0.014648 0,-0.0083 0.0059,-0.013672 0.0063,-0.00586 0.02148,-0.00586 h 0.09912 V 3.2301757 h -0.07568 q -0.01465,0 -0.021,-0.00586 -0.0063,-0.00586 -0.0063,-0.015137 0,-0.00879 0.0059,-0.014648 0.0063,-0.00586 0.02148,-0.00586 z m 0.669434,-0.2104492 v 0.105957 h -0.06055 v -0.105957 z m 0.0015,0.2104492 v 0.381836 h 0.161133 q 0.01514,0 0.02148,0.00586 0.0063,0.00537 0.0063,0.014648 0,0.00879 -0.0063,0.014648 -0.0063,0.00586 -0.02148,0.00586 h -0.363281 q -0.01465,0 -0.021,-0.00586 -0.0063,-0.00586 -0.0063,-0.014648 0,-0.00928 0.0063,-0.014648 0.0063,-0.00586 0.021,-0.00586 h 0.161133 V 3.2301757 h -0.119629 q -0.01465,0 -0.02148,-0.00586 -0.0063,-0.00586 -0.0063,-0.014649 0,-0.00928 0.0063,-0.015137 0.0063,-0.00586 0.02148,-0.00586 z m 0.445801,0 v 0.062012 q 0.04297,-0.043457 0.07764,-0.060059 0.03467,-0.016602 0.07813,-0.016602 0.04687,0 0.08545,0.02002 0.02734,0.014649 0.04932,0.048828 0.02246,0.033691 0.02246,0.069336 v 0.2583008 h 0.03467 q 0.01465,0 0.021,0.00586 0.0063,0.00537 0.0063,0.014648 0,0.00879 -0.0063,0.014648 -0.0063,0.00586 -0.021,0.00586 h -0.109863 q -0.01514,0 -0.02148,-0.00586 -0.0063,-0.00586 -0.0063,-0.014648 0,-0.00928 0.0063,-0.014648 0.0063,-0.00586 0.02148,-0.00586 h 0.03418 V 3.3190429 q 0,-0.043457 -0.03174,-0.073242 -0.03174,-0.030273 -0.08496,-0.030273 -0.04053,0 -0.07031,0.016602 -0.02979,0.016113 -0.08496,0.081055 v 0.2573243 h 0.04639 q 0.01465,0 0.021,0.00586 0.0063,0.00537 0.0063,0.014648 0,0.00879 -0.0063,0.014648 -0.0063,0.00586 -0.021,0.00586 h -0.133789 q -0.01465,0 -0.021,-0.00586 -0.0063,-0.00586 -0.0063,-0.014648 0,-0.00928 0.0063,-0.014648 0.0063,-0.00586 0.021,-0.00586 h 0.04639 V 3.2301757 h -0.03467 q -0.01465,0 -0.021,-0.00586 -0.0063,-0.00586 -0.0063,-0.015137 0,-0.00879 0.0063,-0.014648 0.0063,-0.00586 0.021,-0.00586 z m 0.870606,0.075195 v -0.075195 h 0.09619 q 0.01465,0 0.021,0.00586 0.0063,0.00586 0.0063,0.015137 0,0.00879 -0.0063,0.014649 -0.0063,0.00586 -0.021,0.00586 h -0.05518 v 0.409668 q 0,0.041016 -0.01758,0.073242 -0.01172,0.021484 -0.03906,0.044434 -0.02734,0.022949 -0.0498,0.032715 Q 28.546875,3.8 28.509277,3.8 h -0.116211 q -0.01465,0 -0.021,-0.00586 -0.0063,-0.00537 -0.0063,-0.014648 0,-0.00928 0.0063,-0.015137 0.0063,-0.00586 0.021,-0.00586 l 0.117676,4.883e-4 q 0.03613,0 0.06494,-0.018555 0.0293,-0.018555 0.04834,-0.054199 0.01074,-0.020508 0.01074,-0.052246 V 3.5109375 q -0.06592,0.090332 -0.169922,0.090332 -0.08447,0 -0.145996,-0.0625 -0.06104,-0.062988 -0.06104,-0.1513672 0,-0.088379 0.06104,-0.1508789 0.06152,-0.0625 0.145996,-0.0625 0.104004,0 0.169922,0.089844 z m 0,0.1235352 q 0,-0.072266 -0.0498,-0.1220703 -0.04932,-0.049805 -0.118164,-0.049805 -0.06885,0 -0.118164,0.050293 -0.04932,0.049805 -0.04932,0.121582 0,0.072266 0.04932,0.1225586 0.04932,0.049805 0.118164,0.049805 0.06885,0 0.118164,-0.049805 0.0498,-0.050293 0.0498,-0.1225586 z m 0.885742,0.1831055 h 0.314941 v -0.016113 q 0,-0.014648 0.0059,-0.020996 0.0059,-0.00635 0.01514,-0.00635 0.0088,0 0.01465,0.00635 0.0059,0.00635 0.0059,0.020996 v 0.057129 h -0.396484 v -0.060547 q 0.125,-0.1123047 0.243164,-0.2285156 0.05518,-0.054199 0.07568,-0.07959 0.02051,-0.025391 0.02783,-0.044434 0.0078,-0.019531 0.0078,-0.039063 0,-0.052734 -0.04248,-0.093262 -0.04248,-0.040527 -0.102539,-0.040527 -0.05371,0 -0.09521,0.030762 -0.0415,0.030762 -0.05371,0.076172 -0.0029,0.011719 -0.0073,0.015137 -0.0059,0.00488 -0.01367,0.00488 -0.0083,0 -0.01416,-0.00537 -0.0054,-0.00586 -0.0054,-0.013672 0,-0.023437 0.02539,-0.063477 0.02588,-0.040039 0.0708,-0.062988 0.04541,-0.022949 0.09277,-0.022949 0.07666,0 0.131836,0.053223 0.05518,0.053223 0.05518,0.1206055 0,0.02832 -0.0093,0.052246 -0.0093,0.023437 -0.03174,0.051758 -0.02197,0.027832 -0.07959,0.084473 -0.144531,0.1425781 -0.235351,0.2211914 z m 0.964844,-0.315918 v 0.1015625 q 0,0.1323242 -0.06299,0.2094727 -0.04932,0.060547 -0.124511,0.060547 -0.03613,0 -0.06836,-0.014648 -0.03174,-0.01416 -0.0542,-0.040039 -0.01416,-0.016113 -0.03125,-0.051758 -0.0166,-0.035645 -0.02393,-0.06543 -0.01123,-0.041992 -0.01123,-0.098144 V 3.2545898 q 0,-0.1328125 0.06299,-0.2099609 0.04932,-0.060547 0.124512,-0.060547 0.03662,0 0.06836,0.014648 0.03174,0.01416 0.0542,0.040039 0.01465,0.016602 0.03125,0.052246 0.0166,0.035645 0.02441,0.064941 0.01074,0.041992 0.01074,0.098633 z m -0.04102,0.00537 q 0,-0.058105 -0.0166,-0.1079102 -0.01611,-0.050293 -0.03662,-0.080078 -0.01221,-0.01709 -0.03174,-0.029297 -0.02783,-0.01709 -0.0625,-0.01709 -0.06885,0 -0.10791,0.070312 -0.03906,0.070312 -0.03906,0.1640625 v 0.090332 q 0,0.058105 0.01611,0.1083985 0.0166,0.050293 0.0376,0.080078 0.01172,0.016602 0.03125,0.028809 0.02783,0.017578 0.06299,0.017578 0.06836,0 0.107421,-0.070312 0.03906,-0.070801 0.03906,-0.1645508 z m 0.276367,0.3105469 h 0.314942 v -0.016113 q 0,-0.014648 0.0059,-0.020996 0.0059,-0.00635 0.01514,-0.00635 0.0088,0 0.01465,0.00635 0.0059,0.00635 0.0059,0.020996 v 0.057129 h -0.396484 v -0.060547 q 0.125,-0.1123047 0.243164,-0.2285156 0.05518,-0.054199 0.07568,-0.07959 0.02051,-0.025391 0.02783,-0.044434 0.0078,-0.019531 0.0078,-0.039063 0,-0.052734 -0.04248,-0.093262 -0.04248,-0.040527 -0.102539,-0.040527 -0.05371,0 -0.09521,0.030762 -0.0415,0.030762 -0.05371,0.076172 -0.0029,0.011719 -0.0073,0.015137 -0.0059,0.00488 -0.01367,0.00488 -0.0083,0 -0.01416,-0.00537 -0.0054,-0.00586 -0.0054,-0.013672 0,-0.023437 0.02539,-0.063477 0.02588,-0.040039 0.0708,-0.062988 0.04541,-0.022949 0.09277,-0.022949 0.07666,0 0.131836,0.053223 0.05518,0.053223 0.05518,0.1206055 0,0.02832 -0.0093,0.052246 -0.0093,0.023437 -0.03174,0.051758 -0.02197,0.027832 -0.07959,0.084473 -0.144532,0.1425781 -0.235352,0.2211914 z m 0.663574,-0.5302735 v 0.2006836 q 0.03613,-0.015137 0.06934,-0.022461 0.0332,-0.00781 0.06299,-0.00781 0.07715,0 0.128906,0.054199 0.05225,0.054199 0.05225,0.1425781 0,0.097656 -0.05859,0.1582032 -0.05859,0.060547 -0.146484,0.060547 -0.05811,0 -0.111817,-0.025879 -0.03809,-0.018066 -0.06934,-0.044922 -0.01855,-0.016113 -0.01855,-0.026855 0,-0.00879 0.0059,-0.014648 0.0059,-0.00635 0.01367,-0.00635 0.0083,0 0.01758,0.00879 0.07373,0.068848 0.160645,0.068848 0.07178,0 0.118652,-0.048828 0.04687,-0.049316 0.04687,-0.1308594 0,-0.069336 -0.04053,-0.1113281 -0.04053,-0.04248 -0.103028,-0.04248 -0.06396,0 -0.127929,0.033691 -0.01563,0.00781 -0.02197,0.00781 -0.0088,0 -0.01416,-0.00586 -0.0054,-0.00586 -0.0054,-0.016602 V 2.9987304 h 0.286133 q 0.01465,0 0.021,0.00586 0.0063,0.00586 0.0063,0.015137 0,0.00879 -0.0063,0.014648 -0.0063,0.00586 -0.021,0.00586 z m 0.70459,0.4536133 h 0.01758 q 0.02734,0 0.04687,0.019531 0.01953,0.019043 0.01953,0.046387 0,0.02832 -0.02002,0.047363 -0.01953,0.019043 -0.04639,0.019043 h -0.01758 q -0.02734,0 -0.04687,-0.019043 -0.01953,-0.019531 -0.01953,-0.046875 0,-0.02832 0.01953,-0.047363 0.02002,-0.019043 0.04687,-0.019043 z m 1.244629,0.1176758 H 33.26416 L 33.095703,3.2301757 h -0.04199 q -0.01465,0 -0.021,-0.00586 -0.0063,-0.00586 -0.0063,-0.015137 0,-0.00879 0.0063,-0.014648 0.0063,-0.00586 0.021,-0.00586 h 0.153809 q 0.01465,0 0.021,0.00586 0.0063,0.00586 0.0063,0.015137 0,0.00879 -0.0063,0.014649 -0.0063,0.00586 -0.021,0.00586 h -0.06787 l 0.150391,0.3403321 h 0.01807 l 0.147461,-0.3403321 h -0.06836 q -0.01465,0 -0.021,-0.00586 -0.0063,-0.00586 -0.0063,-0.015137 0,-0.00879 0.0063,-0.014648 0.0063,-0.00586 0.021,-0.00586 h 0.154297 q 0.01514,0 0.021,0.00586 0.0063,0.00586 0.0063,0.015137 0,0.00879 -0.0063,0.014649 -0.0059,0.00586 -0.021,0.00586 H 33.5 Z m 0.752441,-0.3569336 v 0.1015625 q 0,0.1323242 -0.06299,0.2094727 -0.04932,0.060547 -0.124512,0.060547 -0.03613,0 -0.06836,-0.014648 -0.03174,-0.01416 -0.0542,-0.040039 -0.01416,-0.016113 -0.03125,-0.051758 -0.0166,-0.035645 -0.02393,-0.06543 -0.01123,-0.041992 -0.01123,-0.098144 V 3.2545898 q 0,-0.1328125 0.06299,-0.2099609 0.04932,-0.060547 0.124512,-0.060547 0.03662,0 0.06836,0.014648 0.03174,0.01416 0.0542,0.040039 0.01465,0.016602 0.03125,0.052246 0.0166,0.035645 0.02441,0.064941 0.01074,0.041992 0.01074,0.098633 z m -0.04102,0.00537 q 0,-0.058105 -0.0166,-0.1079102 -0.01611,-0.050293 -0.03662,-0.080078 -0.01221,-0.01709 -0.03174,-0.029297 -0.02783,-0.01709 -0.0625,-0.01709 -0.06885,0 -0.10791,0.070312 -0.03906,0.070312 -0.03906,0.1640625 v 0.090332 q 0,0.058105 0.01611,0.1083985 0.0166,0.050293 0.0376,0.080078 0.01172,0.016602 0.03125,0.028809 0.02783,0.017578 0.06299,0.017578 0.06836,0 0.107422,-0.070312 0.03906,-0.070801 0.03906,-0.1645508 z m 0.444336,0.2338867 h 0.01758 q 0.02734,0 0.04687,0.019531 0.01953,0.019043 0.01953,0.046387 0,0.02832 -0.02002,0.047363 -0.01953,0.019043 -0.04639,0.019043 h -0.01758 q -0.02734,0 -0.04687,-0.019043 -0.01953,-0.019531 -0.01953,-0.046875 0,-0.02832 0.01953,-0.047363 0.02002,-0.019043 0.04687,-0.019043 z m 0.776855,-0.2290039 q -0.03174,0.056152 -0.07568,0.084473 -0.04346,0.02832 -0.08936,0.02832 -0.04248,0 -0.08252,-0.024414 -0.03955,-0.024414 -0.06299,-0.071289 -0.02344,-0.047363 -0.02344,-0.099121 0,-0.075195 0.04639,-0.1367188 0.04687,-0.062012 0.125,-0.062012 0.05566,0 0.101562,0.034668 0.0459,0.034668 0.07129,0.1005859 0.03271,0.084473 0.03271,0.1962891 0,0.086914 -0.02783,0.1445312 -0.01855,0.039063 -0.05469,0.075684 -0.03564,0.036621 -0.08057,0.05957 -0.06152,0.030762 -0.12793,0.030762 -0.04395,0 -0.07178,-0.016601 -0.0127,-0.00781 -0.0127,-0.019531 0,-0.0083 0.0059,-0.013672 0.0059,-0.00586 0.01416,-0.00586 0.0059,0 0.01709,0.00537 0.01904,0.00928 0.04395,0.00928 0.104004,0 0.178711,-0.074707 0.07471,-0.075195 0.07471,-0.1879883 0,-0.020508 -0.002,-0.057617 z m -0.0078,-0.068359 q -0.02588,-0.099121 -0.06445,-0.1347656 -0.03809,-0.036133 -0.08936,-0.036133 -0.05225,0 -0.0918,0.043945 -0.03955,0.043945 -0.03955,0.112793 0,0.066895 0.03955,0.1108398 0.03955,0.043457 0.08936,0.043457 0.02881,0 0.05664,-0.015625 0.02832,-0.015625 0.05322,-0.046875 0.01611,-0.020996 0.04639,-0.077637 z"
       id="text2"
       style="font-size:1px;line-height:1;font-family:Monospace;-inkscape-font-specification:Monospace;letter-spacing:0px;word-spacing:0px;stroke-width:0.02"
       aria-label="ValveWizard design remake by Metonic Engineering 2025. v0.9" /></g></svg>
