<?xml version="1.0" encoding="UTF-8" standalone="no"?>
<!-- Created with Inkscape (http://www.inkscape.org/) -->

<svg
   width="21.808689mm"
   height="4.0644536mm"
   viewBox="0 0 21.808689 4.0644537"
   version="1.1"
   id="svg1"
   xml:space="preserve"
   sodipodi:docname="SparkGap2.svg"
   inkscape:version="1.4.3 (0d15f75, 2025-12-25)"
   xmlns:inkscape="http://www.inkscape.org/namespaces/inkscape"
   xmlns:sodipodi="http://sodipodi.sourceforge.net/DTD/sodipodi-0.dtd"
   xmlns="http://www.w3.org/2000/svg"
   xmlns:svg="http://www.w3.org/2000/svg"><sodipodi:namedview
     id="namedview1"
     pagecolor="#ffffff"
     bordercolor="#000000"
     borderopacity="0.25"
     inkscape:showpageshadow="2"
     inkscape:pageopacity="0.0"
     inkscape:pagecheckerboard="0"
     inkscape:deskcolor="#d1d1d1"
     inkscape:document-units="mm"
     inkscape:zoom="5.6568542"
     inkscape:cx="81.935998"
     inkscape:cy="30.228815"
     inkscape:current-layer="text1" /><defs
     id="defs1" /><g
     inkscape:label="Layer 1"
     inkscape:groupmode="layer"
     id="layer1"
     transform="translate(-0.03494256,1.0722105)"><path
       style="fill:#000000;stroke-width:0.999996"
       d="M 0.82173636,2.9547414 0.65352954,2.9265121 0.52655436,2.8676961 0.39957917,2.80888 0.31806316,2.7350553 0.23654717,2.6612303 0.17190592,2.5351967 0.10726468,2.4091633 0.07136595,2.1879239 0.03546725,1.9666844 0.0352049,1.836457 0.03494256,1.7062296 H 0.5068481 0.97875359 l -0.093352,0.1109416 -0.0933521,0.1109417 0.0191296,0.1178838 0.0191297,0.1178826 0.04066,0.048992 0.04066,0.048992 H 1.0438053 1.1759816 l 0.05748,-0.057481 0.05748,-0.05748 0.030552,-0.080359 0.030552,-0.080359 L 1.2962941,1.8357582 1.2405409,1.6853288 1.0631511,1.587429 0.88576131,1.4895294 0.76421576,1.4248768 0.64267024,1.3602243 0.45531021,1.2293632 0.26795019,1.0985021 0.16313844,0.89486175 0.05832668,0.69122154 0.06012659,0.39131606 0.0619265,0.0914106 0.14968895,-0.10597286 0.23745139,-0.30335632 0.4226972,-0.42621177 0.607943,-0.54906722 l 0.2366872,-0.0334193 0.2366872,-0.0334192 0.2056242,0.0331147 0.2056242,0.0331147 0.087279,0.0331838 0.087282,0.0331839 v 0.0336919 0.0336918 l 0.094204,0.0453041 0.094204,0.0453041 0.076828,0.114133 0.076828,0.11413298 0.037333,0.17407633 0.037333,0.17407643 V 0.45775657 0.66441103 H 1.6011013 1.1183499 L 1.2191012,0.55655717 1.3198523,0.44870219 V 0.3481928 0.24768378 l -0.069454,-0.0694548 -0.069455,-0.0694545 -0.1302274,5.3176e-4 -0.13022736,5.3178e-4 -0.0508384,0.0321546 -0.0508384,0.0321546 -0.001253,0.20752355 -0.001253,0.20752374 0.0866329,0.0922991 0.086633,0.0922991 0.25424946,0.12741752 0.2542492,0.12741747 0.2046278,0.1655718 0.2046276,0.1655721 0.073574,0.1645469 0.073574,0.1645469 0.018575,0.2430913 0.018575,0.2430909 -0.072574,0.2083638 -0.072574,0.2083637 -0.1309583,0.1153396 -0.130958,0.1153395 -0.1060451,0.050321 -0.1060438,0.050323 -0.2065337,0.033821 -0.2065339,0.033821 -0.034727,-0.00389 -0.0347273,-0.00389 z M 2.3616715,1.3440737 v -1.64706593 l -0.044552,-0.0458898 -0.044551,-0.0458898 -0.08238,-0.11710495 -0.08238,-0.11710511 0.7780673,0.0169768 0.7780671,0.0169768 0.121545,0.0441661 0.1215462,0.044166 0.071693,0.064644 0.071693,0.064644 h 0.033411 0.033411 l 0.093079,0.14354885 0.09308,0.14354881 0.039932,0.19235596 0.039931,0.19235591 -0.014643,0.48886852 -0.01464,0.48886834 -0.060285,0.1389098 -0.060286,0.1389084 -0.1111024,0.1172405 -0.111105,0.1172406 -0.1546889,0.069843 -0.1546885,0.069843 -0.305448,0.017415 -0.3054481,0.017415 v 0.344182 0.3441805 l 0.049801,0.096305 0.049802,0.096306 0.05438,0.045132 0.05438,0.045132 V 2.960667 2.991143 H 2.8304897 2.3616715 Z m 1.2317276,-0.1922749 0.061764,-0.06825 0.017082,-0.30506953 0.017083,-0.30506921 -0.040486,-0.14911559 -0.040486,-0.14911554 -0.08733,-0.0332028 -0.08733,-0.0332028 H 3.2623201 3.0909446 v 0.5556377 0.55563647 h 0.2203452 0.220345 z M 4.0033302,2.921685 4.0916262,2.85223 h 0.018425 0.018423 L 4.2282362,2.756732 4.3279972,2.661234 4.3860552,2.567867 4.4441132,2.4745 4.5456121,2.0643203 4.6471096,1.654142 l 0.057896,-0.2083635 0.057896,-0.208364 0.1001139,-0.382 0.1001138,-0.3820003 0.1052996,-0.39936398 0.1052997,-0.39936387 0.09443,-0.37192113 0.09443,-0.37192112 0.011369,0.011368 0.011369,0.011368 0.034403,0.21361515 0.034403,0.21361515 0.1576213,0.52893871 0.1576212,0.52893868 0.048853,0.2519939 0.048854,0.25199395 0.091319,0.33836996 0.09132,0.3383701 0.045233,0.1041814 0.045233,0.1041828 0.054055,0.2257274 0.054055,0.2257274 0.0206,0.131512 0.020599,0.1315121 0.1485057,0.154989 0.1485057,0.1549888 h 0.040678 0.040679 V 1.2400761 -0.37207873 L 6.5810357,-0.47525642 6.4942189,-0.578434 v -0.0252329 -0.0252329 l 0.7553189,0.0170268 0.7553187,0.0170267 0.1215462,0.0447393 0.121545,0.044739 0.1612301,0.13355004 0.1612303,0.13355002 0.062057,0.14747561 0.062056,0.14747561 0.014746,0.52561856 0.014746,0.52561826 -0.05873,0.2036547 -0.05873,0.2036548 -0.1892298,0.181253 -0.18923,0.1812528 0.075525,0.1486561 0.075525,0.1486561 0.181432,0.2778184 0.1814319,0.2778186 0.065521,0.056665 0.06552,0.056665 0.078136,0.023811 0.078136,0.023812 V 1.3074815 -0.27667508 l -0.0498,-0.096305 -0.0498,-0.096305 -0.05438,-0.045132 -0.05438,-0.045132 v -0.030475 -0.0304749 h 0.4688106 0.4688187 v 0.50354574 0.50354571 h 0.031729 0.031729 l 0.1853155,-0.33652452 0.185316,-0.33652452 0.08759,-0.15833939 0.08759,-0.15833941 0.529919,-0.009592 0.529921,-0.009593 -0.131337,0.11744432 -0.131335,0.11744427 -0.07304,0.0382361 -0.07305,0.0382361 -0.131894,0.25327589 -0.131895,0.25327587 -0.108618,0.1736365 -0.108617,0.17363614 -0.05976,0.10954046 -0.05976,0.10954048 v 0.052643 0.052643 l 0.1378,0.40592304 0.137801,0.4059233 0.03316,0.039953 0.03316,0.039953 0.07634,0.3122142 0.07634,0.3122146 0.04913,0.096197 0.04913,0.096198 0.148701,0.1468945 0.148702,0.1468929 0.08446,0.059796 0.08446,0.059796 -0.552611,-0.00769 L 10.37235,2.9738073 10.148346,2.3313362 9.9243579,1.6888812 9.8675101,1.5414198 9.8106622,1.3939585 9.784617,1.3938284 9.7585718,1.3936981 v 0.6054672 0.6054668 l 0.03694,0.097762 0.03693,0.097761 0.091626,0.096044 0.091627,0.096044 L 9.0116021,2.9830119 8.0074894,2.9737872 7.9566518,2.8696045 7.9058144,2.7654238 7.8366264,2.626514 7.7674371,2.4876057 7.6901375,2.3938051 7.612838,2.3000044 7.5483938,2.1602914 7.4839485,2.0205784 7.4579033,2.0196826 7.4318581,2.0187867 v 0.2899997 0.2899999 l 0.039538,0.118046 0.039538,0.1180458 0.070697,0.078136 0.070696,0.078136 H 6.6422346 5.6321421 L 5.6086734,2.8522307 5.5852047,2.7133216 H 5.3496049 5.1140045 L 5.091793,2.852231 5.0695815,2.9911408 H 4.4923066 3.9150329 Z M 5.437142,1.836457 5.4129123,1.6194114 5.3843142,1.5901686 5.3557161,1.5609258 5.3189788,1.6769876 5.2822417,1.7930483 5.2592739,1.9232764 5.2363061,2.0535033 H 5.3488384 5.4613706 Z M 7.9210057,1.1450493 7.9611434,1.0700507 7.9790601,0.78287101 7.9969765,0.49569132 7.9549374,0.32873949 7.9128986,0.16178749 7.8720593,0.13581264 7.8312204,0.10983779 7.6315385,0.10930605 7.4318564,0.10877426 V 0.66441103 1.2200475 H 7.656362 7.8808675 Z m 4.9630363,1.7964508 -0.191,-0.043818 -0.08748,-0.036177 -0.08748,-0.036177 -0.144749,-0.157038 -0.144752,-0.1570374 -0.0456,-0.1507384 -0.0456,-0.1507385 V 1.1853202 0.16086519 l 0.06301,-0.18065501 0.06301,-0.180655 0.174489,-0.15449636 0.174487,-0.15449638 0.144502,-0.0403522 0.144499,-0.0403522 0.512228,-0.0198968 0.512227,-0.0198968 v 0.49170114 0.49170115 l -0.08681,-0.0568854 -0.08682,-0.0568854 v -0.0273361 -0.0273361 l -0.109362,-0.0381245 -0.109362,-0.0381244 h -0.248628 -0.248635 l -0.06741,0.0492917 -0.06742,0.0492916 v 0.97796257 0.977963 l 0.06945,0.050834 0.06945,0.050834 0.138908,-0.010222 0.138911,-0.010222 0.06322,-0.121545 0.06323,-0.1215463 -0.0153,-0.3665931 -0.0153,-0.3665932 -0.03923,-0.07618 -0.03923,-0.076181 -0.03473,-0.068984 -0.03473,-0.0689818 V 0.9600691 0.9422343 h 0.451456 0.451452 v 0.6187883 0.6187883 l -0.05358,0.1804291 -0.05359,0.1804289 -0.108091,0.123102 -0.108091,0.1231021 -0.129321,0.065975 -0.129323,0.065975 -0.221239,0.035901 -0.22124,0.0359 -0.03473,-0.00265 -0.03473,-0.00265 z m 1.120749,-0.019815 0.0883,-0.069455 h 0.01842 0.01842 l 0.09976,-0.095498 0.09976,-0.095498 0.05718,-0.092021 0.05719,-0.092021 0.07127,-0.3073425 0.07127,-0.3073429 0.05023,-0.1736367 0.05023,-0.1736362 0.04961,-0.1736366 0.04961,-0.1736365 0.111693,-0.43409088 0.111694,-0.43409141 0.09717,-0.36463647 0.0972,-0.36463658 0.08112,-0.32135794 0.0811,-0.32135792 0.0241,0.060903 0.0241,0.0609028 0.0024,0.0889426 0.0024,0.0889422 0.151744,0.55601623 0.151744,0.55601626 0.03583,0.0669498 0.03583,0.0669498 0.02356,0.17363631 0.02358,0.17363661 0.120257,0.44967459 0.120257,0.4496745 0.02721,0.036509 0.02721,0.036508 0.06131,0.2778181 0.06131,0.2778185 0.03178,0.1264135 0.03179,0.1264146 0.138757,0.1253599 0.13876,0.1253598 h 0.03463 0.03463 v -1.602862 -1.60285947 l -0.08681,-0.11382459 -0.08681,-0.11382458 v -0.0238825 -0.0238813 l 0.75532,0.0170268 0.755318,0.0170267 0.121554,0.0447391 0.121555,0.0447393 0.162546,0.13465322 0.162547,0.13465323 0.06317,0.16373598 0.06317,0.16373597 V 0.66441103 1.2374112 l -0.06194,0.1604378 -0.06194,0.1604375 -0.138487,0.1281407 -0.138485,0.1281421 -0.12949,0.054515 -0.12949,0.054515 -0.303865,0.017675 -0.303861,0.017675 v 0.3199102 0.3199102 l 0.03953,0.1180458 0.03954,0.118046 0.0707,0.078136 0.0707,0.078136 H 16.643741 15.633648 L 15.610189,2.852224 15.58673,2.7133142 h -0.235626 -0.235601 l -0.02221,0.1389098 -0.02221,0.13891 h -0.57729 -0.577273 z m 1.447068,-0.9636823 -0.0018,-0.095498 -0.02465,-0.1389098 -0.02464,-0.13891 -0.03414,0.00658 -0.03412,0.00658 -0.04007,0.167041 -0.04007,0.1670413 -0.0033,0.060774 -0.0033,0.060773 h 0.104189 0.104177 z m 2.470607,-0.8129535 0.04012,-0.074998 0.01791,-0.28717967 0.01791,-0.28717968 -0.04203,-0.1669519 -0.04203,-0.166952 -0.04084,-0.0259749 -0.04084,-0.0259749 -0.19968,-5.3176e-4 -0.199683,-5.3176e-4 V 0.6644112 1.2200477 h 0.224505 0.224505 z m 1.915237,1.1949537 0.01657,-0.6511368 0.08945,-0.1953523 0.08946,-0.1953525 0.236701,-0.1654638 0.236698,-0.16546385 0.220633,-0.10539187 0.220634,-0.10539186 0.08887,-0.13428703 0.08889,-0.13428681 -0.0046,-0.1287804 -0.0046,-0.12878033 -0.07432,-0.0607729 -0.07432,-0.0607728 h -0.119285 -0.119285 l -0.08523,0.0852396 -0.08524,0.0852396 v 0.0760331 0.0760358 l 0.13024,0.11509883 0.130237,0.11509896 -0.499857,0.001434 -0.499857,0.001434 0.02326,-0.2789366 0.02326,-0.2789367 0.07182,-0.19190418 0.07181,-0.19190419 0.161702,-0.11921254 0.161702,-0.11921254 0.138903,-0.039133 0.138903,-0.0391329 0.277818,0.001871 0.27782,0.001871 0.104176,0.0460388 0.104176,0.0460389 0.141982,0.0919852 0.141968,0.0919852 0.08347,0.1854263 0.08345,0.1854263 -0.0012,0.31254566 -0.0012,0.31254567 -0.0993,0.20836375 -0.09929,0.20836373 -0.05553,0.053376 -0.05554,0.053376 -0.113687,0.046676 -0.1137,0.046677 -0.02521,0.040549 -0.02521,0.040548 -0.199683,0.096361 -0.199681,0.096361 v 0.032173 0.032173 h -0.05032 -0.05032 l -0.08859,0.1161423 -0.08859,0.1161423 v 0.1964096 0.196404 h 0.295072 0.295181 V 2.1157398 1.9696131 L 21.020498,1.8379213 20.8919,1.7062291 h 0.475866 0.475865 V 2.348685 2.9911399 h -1.01131 -1.01127 z"
       id="path2" /><path
       style="fill:#000000"
       id="path1"
       d="" /><g
       id="text1"
       style="font-weight:bold;font-size:2px;line-height:0;font-family:Lato;-inkscape-font-specification:'Lato Bold';letter-spacing:0px;word-spacing:0px;fill-opacity:0.0139535;stroke:#000000;stroke-width:0.25"
       aria-label="ValveWizard&#10;Clone by Metonic Eng."
       transform="translate(2.6458334)"><text
         xml:space="preserve"
         style="font-style:normal;font-variant:normal;font-weight:normal;font-stretch:normal;font-size:1.2px;line-height:1;font-family:Monospace;-inkscape-font-specification:Monospace;text-decoration-color:#000000;letter-spacing:0px;word-spacing:0px;writing-mode:lr-tb;direction:ltr;fill:#000000;fill-opacity:1;stroke:none;stroke-width:0.25"
         x="10.726425"
         y="-3.0366414"
         id="text5-8"
         inkscape:export-filename="text5.pdf"
         inkscape:export-xdpi="96"
         inkscape:export-ydpi="96"><tspan
           sodipodi:role="line"
           id="tspan5-2"
           style="font-style:normal;font-variant:normal;font-weight:normal;font-stretch:semi-condensed;font-family:'Lucida Console';-inkscape-font-specification:'Lucida Console Semi-Condensed';stroke-width:0.25"
           x="10.726425"
           y="-3.0366414" /></text></g></g></svg>
