<?xml version="1.0" encoding="UTF-8" standalone="no"?>
<svg
   viewBox="0 0 29 29"
   shape-rendering="crispEdges"
   version="1.1"
   id="svg2"
   width="29"
   height="29"
   xmlns="http://www.w3.org/2000/svg"
   xmlns:svg="http://www.w3.org/2000/svg">
  <defs
     id="defs2" />
  <g
     id="path2"
     style="opacity:1"
     transform="translate(-4,-4)">
    <path
       style="baseline-shift:baseline;display:inline;overflow:visible;vector-effect:none;shape-rendering:auto;enable-background:accumulate;stop-color:#000000;stop-opacity:1"
       d="m 4,4.5 h 7 m 1,0 h 2 m 3,0 h 1 m 1,0 h 1 m 2,0 h 3 m 1,0 h 7 m -29,1 h 1 m 5,0 h 1 m 1,0 h 1 m 1,0 h 2 m 1,0 h 1 m 3,0 h 2 m 1,0 h 1 m 1,0 h 1 m 5,0 h 1 m -29,1 h 1 m 1,0 h 3 m 1,0 h 1 m 2,0 h 2 m 4,0 h 2 m 1,0 h 1 m 1,0 h 1 m 1,0 h 1 m 1,0 h 3 m 1,0 h 1 m -29,1 h 1 m 1,0 h 3 m 1,0 h 1 m 1,0 h 2 m 1,0 h 2 m 1,0 h 4 m 1,0 h 1 m 2,0 h 1 m 1,0 h 3 m 1,0 h 1 m -29,1 h 1 m 1,0 h 3 m 1,0 h 1 m 2,0 h 1 m 4,0 h 2 m 1,0 h 1 m 1,0 h 1 m 2,0 h 1 m 1,0 h 3 m 1,0 h 1 m -29,1 h 1 m 5,0 h 1 m 5,0 h 2 m 2,0 h 1 m 1,0 h 3 m 1,0 h 1 m 5,0 h 1 m -29,1 h 7 m 1,0 h 1 m 1,0 h 1 m 1,0 h 1 m 1,0 h 1 m 1,0 h 1 m 1,0 h 1 m 1,0 h 1 m 1,0 h 7 m -21,1 h 5 m 4,0 h 1 m 1,0 h 1 m -20,1 h 1 m 1,0 h 2 m 1,0 h 3 m 2,0 h 4 m 3,0 h 2 m 3,0 h 1 m 2,0 h 1 m 1,0 h 2 m -29,1 h 3 m 1,0 h 2 m 1,0 h 4 m 1,0 h 3 m 1,0 h 1 m 1,0 h 3 m 1,0 h 3 m 3,0 h 1 m -28,1 h 3 m 2,0 h 1 m 1,0 h 4 m 1,0 h 1 m 2,0 h 3 m 1,0 h 2 m 1,0 h 1 m 2,0 h 2 m -28,1 h 1 m 1,0 h 1 m 1,0 h 2 m 1,0 h 4 m 5,0 h 1 m 1,0 h 5 m 1,0 h 1 m 3,0 h 1 m -26,1 h 5 m 3,0 h 1 m 2,0 h 2 m 1,0 h 1 m 2,0 h 1 m 4,0 h 2 m -27,1 h 2 m 5,0 h 2 m 5,0 h 4 m 1,0 h 1 m 2,0 h 1 m 3,0 h 3 m -29,1 h 2 m 1,0 h 1 m 2,0 h 1 m 3,0 h 1 m 2,0 h 1 m 3,0 h 4 m 1,0 h 1 m 3,0 h 3 m -29,1 h 2 m 5,0 h 3 m 1,0 h 2 m 1,0 h 1 m 1,0 h 1 m 1,0 h 7 m 2,0 h 1 m -27,1 h 2 m 1,0 h 1 m 1,0 h 4 m 2,0 h 1 m 1,0 h 1 m 4,0 h 2 m 3,0 h 2 m 1,0 h 1 m -27,1 h 1 m 2,0 h 2 m 3,0 h 4 m 1,0 h 1 m 2,0 h 1 m 5,0 h 1 m 1,0 h 3 m -28,1 h 1 m 5,0 h 1 m 2,0 h 1 m 3,0 h 5 m 2,0 h 1 m 1,0 h 3 m 1,0 h 1 m -25,1 h 1 m 1,0 h 2 m 1,0 h 1 m 1,0 h 3 m 1,0 h 3 m 1,0 h 2 m 3,0 h 3 m 1,0 h 1 m -26,1 h 1 m 1,0 h 2 m 1,0 h 1 m 1,0 h 1 m 4,0 h 4 m 1,0 h 1 m 1,0 h 7 m -19,1 h 1 m 1,0 h 1 m 1,0 h 1 m 3,0 h 1 m 3,0 h 1 m 3,0 h 5 m -29,1 h 7 m 1,0 h 1 m 1,0 h 2 m 2,0 h 1 m 4,0 h 2 m 1,0 h 1 m 1,0 h 2 m 1,0 h 1 m -28,1 h 1 m 5,0 h 1 m 1,0 h 2 m 3,0 h 4 m 1,0 h 1 m 1,0 h 1 m 3,0 h 2 m 2,0 h 1 m -29,1 h 1 m 1,0 h 3 m 1,0 h 1 m 3,0 h 1 m 1,0 h 1 m 2,0 h 3 m 2,0 h 5 m 1,0 h 1 m -27,1 h 1 m 1,0 h 3 m 1,0 h 1 m 1,0 h 1 m 2,0 h 1 m 3,0 h 5 m 1,0 h 1 m 1,0 h 3 m 2,0 h 1 m -29,1 h 1 m 1,0 h 3 m 1,0 h 1 m 1,0 h 2 m 1,0 h 1 m 8,0 h 1 m 2,0 h 1 m 2,0 h 1 m 1,0 h 1 m -29,1 h 1 m 5,0 h 1 m 4,0 h 1 m 1,0 h 3 m 2,0 h 1 m 1,0 h 2 m 1,0 h 1 m 1,0 h 1 m 1,0 h 1 m -28,1 h 7 m 1,0 h 2 m 8,0 h 5 m 4,0 h 1"
       id="path3" />
    <path
       style="baseline-shift:baseline;display:inline;overflow:visible;vector-effect:none;fill:#000000;fill-opacity:1;stroke:none;stroke-opacity:1;shape-rendering:auto;enable-background:accumulate;stop-color:#000000;stop-opacity:1"
       d="m 4,4 v 1 1 1 1 1 1 1 h 7 V 10 9 8 7 6 5 4 Z m 8,0 v 1 1 h 1 V 5 h 1 V 4 Z m 2,1 v 1 h -1 v 1 h -1 v 1 h 1 v 1 h 1 V 8 7 h 1 V 6 h 1 V 5 Z m 1,2 v 1 h 2 V 7 Z m 2,-3 v 1 1 h 1 V 5 4 Z m 2,0 v 1 h 1 V 4 Z m 3,0 v 1 h -1 v 1 h 1 v 1 h 1 V 6 5 h 1 v 1 1 h 1 V 6 5 4 Z m 2,3 h -1 v 1 1 h -1 v 1 1 h 1 v -1 h 1 v 1 h 1 V 10 9 H 24 V 8 Z m 0,4 h -1 v 1 h 1 z m -1,1 h -1 v -1 h -1 v 1 1 h 1 v 1 h -1 v -1 h -1 v 1 1 1 h 1 v -1 h 1 v 1 h 2 v 1 h 1 v -1 h 2 v -1 h -1 v -1 h -1 v -1 h -2 z m 3,2 h 1 v 1 h 1 v -1 h 1 v -1 h -2 v -1 h -1 v 1 z m 3,-1 h 1 v -1 h -1 z m -1,2 v 1 h 1 v -1 z m 1,1 v 1 h 1 v 1 1 h 1 v 1 1 h -1 v -1 h -1 v -1 h -2 v -1 -1 h -1 v 1 1 h -1 v -1 h -1 v -1 h -1 v 1 h -1 v -1 -1 h -1 v 1 h -1 v -1 h -2 v 1 1 h 3 v 1 h 1 v 1 h 1 v 1 h 2 v -1 h 3 v 1 h 1 v 1 h 1 v 1 1 h -1 v -1 -1 h -1 v -1 h -1 v 1 h -1 v 1 1 h -2 v 1 1 h -1 v 1 h 1 v 1 1 h 1 v 1 h 1 v -1 h 1 v 1 1 1 h 1 v -1 -1 h 2 v -1 h -1 v -1 h 1 v -1 -1 h 1 v 1 h 1 v -1 h 1 v -1 h -2 v -1 -1 -1 h 1 v -1 -1 -1 h 1 v -1 -1 h -2 v -1 z m 3,11 v 1 h 1 v -1 z m -2,1 v 1 h 1 v -1 z m 0,2 v 1 h 1 v -1 z m 1,1 v 1 1 h 1 v -1 -1 z m 1,0 h 1 v -1 -1 h -1 v 1 z m -2,0 h -1 v 1 h 1 z m -3,1 h -1 v -1 h -1 v -1 h -1 v 1 1 h -1 v -1 h -1 v 1 1 h 5 z m -3,-2 v -1 h -2 v -1 h -1 v -1 h -2 v -1 h -1 v 1 h -1 v 1 h 2 v 1 1 z m -7,-2 h -1 v 1 h 1 z m -1,1 h -1 v 1 1 1 h 1 v -1 -1 z m -1,0 v -1 h -1 v 1 z m -1,-1 v -1 h -1 v -1 -1 -1 h -1 v 1 1 1 1 z m -2,-4 v -1 h -1 v 1 z m -1,0 h -1 v 1 h 1 z m -1,0 V 23 H 8 v 1 H 7 v 1 H 9 V 24 Z M 7,24 V 23 H 6 v 1 z M 6,24 H 5 v 1 h 1 z m 4,-1 h 1 v -1 h -1 z m 0,-1 V 21 H 9 V 20 H 8 v 1 1 z m 0,-1 h 3 v 1 1 1 h 3 v -1 h -2 v -1 h 3 v -1 -1 -1 h -2 v 1 h 1 v 1 h -2 v -1 -1 h -3 v 1 h -1 z m 1,-2 v -1 h -1 v 1 z m 0,-1 h 2 v -1 h -1 v -1 h 3 v -1 h 1 v -1 h -1 v -1 h 1 v 1 h 1 v 1 h 1 v -1 h 1 v -1 h -1 v -1 h -1 v -1 -1 h 1 V 9 h -2 v 1 1 h -1 v -1 h -1 v 1 h -1 v -1 h -1 v 1 1 h 2 v 1 H 12 V 12 H 9 v 1 H 8 v 1 h 2 v -1 h 1 v 1 h 1 v 1 h -1 v 1 H 10 V 15 H 8 v 1 H 7 v 1 h 4 z M 7,16 V 15 H 8 V 14 H 7 V 13 H 8 V 12 H 6 v 1 H 5 V 12 H 4 v 1 1 h 1 v 1 h 1 v 1 z M 5,15 H 4 v 1 h 1 z m 5,0 h 1 v -1 h -1 z m 8,-6 h 2 V 8 h 1 v 1 h 1 V 8 7 H 21 V 6 h -2 v 1 h -1 v 1 z m 3,0 h -1 v 1 1 h 1 v -1 z m -3,1 v 1 h 1 v -1 z m -3,6 v 1 h 1 v -1 z m -1,3 h 1 v -1 h -1 z m 3,0 h 1 v -1 h -1 z m 1,0 v 1 1 1 h -1 v 1 1 1 h 3 v 1 h 1 v -1 -1 h -1 v -1 h 1 v 1 h 1 v 1 h 1 v -1 -1 h -1 v -1 -1 h -1 v 1 h -2 v -1 -1 -1 z m -1,6 h -1 v 1 h 1 z m -1,1 h -1 v -1 h -1 v 1 1 h 2 z m 6,2 h 1 v -1 h -1 z m -1,-9 h -1 v 1 h 1 z M 26,4 v 1 1 1 1 1 1 1 h 7 V 10 9 8 7 6 5 4 Z M 5,5 h 5 v 1 1 1 1 1 H 5 V 9 8 7 6 Z m 22,0 h 5 v 1 1 1 1 1 H 27 V 9 8 7 6 Z M 6,6 V 7 8 9 H 9 V 8 7 6 Z m 22,0 v 1 1 1 h 3 V 8 7 6 Z m 3,6 v 1 h 1 v 1 h 1 v -1 -1 z m 1,2 h -2 v 1 h 2 z m 0,1 v 1 h 1 v -1 z m -9,-1 h 1 v 1 H 23 Z M 4,17 v 1 1 1 h 1 v 1 1 H 6 V 21 H 7 V 20 H 6 v -1 -1 -1 z m 1,5 H 4 v 1 h 1 z m 2,-4 v 1 h 1 v -1 z m 17,4 v 1 h 1 v -1 z m 1,3 h 3 v 1 1 1 H 25 V 27 26 Z M 4,26 v 1 1 1 1 1 1 1 h 7 v -1 -1 -1 -1 -1 -1 -1 z m 22,0 v 1 h 1 V 26 Z M 5,27 h 5 v 1 1 1 1 1 H 5 v -1 -1 -1 -1 z m 1,1 v 1 1 1 h 3 v -1 -1 -1 z m 6,1 v 1 1 h 2 v -1 h -1 v -1 z m 5,2 v 1 h 3 v -1 z m -5,1 v 1 h 2 v -1 z"
       id="path4" />
  </g>
</svg>
